<svg width="706" height="468" viewBox="0 0 706 468" fill="none" xmlns="http://www.w3.org/2000/svg">
<path d="M161.362 232.901C161.362 233.852 161.644 234.782 162.173 235.573C162.702 236.364 163.453 236.98 164.332 237.344C165.211 237.708 166.179 237.803 167.112 237.617C168.045 237.431 168.902 236.973 169.574 236.3C170.247 235.627 170.704 234.77 170.89 233.837C171.075 232.904 170.979 231.936 170.615 231.058C170.251 230.179 169.634 229.428 168.843 228.9C168.051 228.371 167.121 228.09 166.17 228.09C164.895 228.092 163.672 228.599 162.771 229.501C161.869 230.403 161.363 231.626 161.362 232.901V232.901ZM163.746 232.901C163.746 232.421 163.888 231.951 164.155 231.552C164.422 231.153 164.801 230.842 165.245 230.658C165.688 230.475 166.177 230.427 166.647 230.521C167.118 230.615 167.551 230.846 167.89 231.186C168.229 231.526 168.46 231.958 168.554 232.429C168.647 232.9 168.598 233.388 168.414 233.832C168.23 234.275 167.919 234.654 167.519 234.92C167.12 235.187 166.65 235.329 166.17 235.328C165.527 235.327 164.91 235.071 164.456 234.616C164.001 234.161 163.746 233.544 163.746 232.901Z" fill="#B283FF" fill-opacity="0.5"/>
<path d="M80.5079 56.794H107.749C108.065 56.794 108.368 56.9195 108.591 57.143C108.815 57.3664 108.94 57.6695 108.94 57.9855C108.94 58.3015 108.815 58.6046 108.591 58.828C108.368 59.0515 108.065 59.177 107.749 59.177H80.5079C80.1919 59.177 79.8889 59.0515 79.6654 58.828C79.442 58.6046 79.3164 58.3015 79.3164 57.9855C79.3164 57.6695 79.442 57.3664 79.6654 57.143C79.8889 56.9195 80.1919 56.794 80.5079 56.794Z" fill="#B283FF" fill-opacity="0.5"/>
<path d="M116.419 56.789H121.741C122.057 56.789 122.36 56.9146 122.584 57.1381C122.807 57.3617 122.933 57.6649 122.933 57.981C122.933 58.2971 122.807 58.6003 122.584 58.8239C122.36 59.0474 122.057 59.173 121.741 59.173H116.419C116.103 59.173 115.8 59.0474 115.576 58.8239C115.353 58.6003 115.227 58.2971 115.227 57.981C115.227 57.6649 115.353 57.3617 115.576 57.1381C115.8 56.9146 116.103 56.789 116.419 56.789Z" fill="#B283FF" fill-opacity="0.5"/>
<path d="M93.3071 66.289C93.3071 66.4456 93.338 66.6006 93.3979 66.7452C93.4578 66.8898 93.5456 67.0212 93.6562 67.1319C93.7669 67.2426 93.8983 67.3304 94.043 67.3903C94.1876 67.4502 94.3426 67.481 94.4991 67.481H97.9072C98.2233 67.481 98.5265 67.3554 98.75 67.1319C98.9735 66.9083 99.0991 66.6052 99.0991 66.289C99.0991 65.9729 98.9735 65.6697 98.75 65.4461C98.5265 65.2226 98.2233 65.097 97.9072 65.097H94.4991C94.3426 65.097 94.1876 65.1278 94.043 65.1878C93.8983 65.2477 93.7669 65.3355 93.6562 65.4461C93.5456 65.5568 93.4578 65.6882 93.3979 65.8329C93.338 65.9775 93.3071 66.1325 93.3071 66.289V66.289ZM102.673 66.289C102.673 66.6052 102.799 66.9083 103.022 67.1319C103.246 67.3554 103.549 67.481 103.865 67.481H109.824C110.14 67.481 110.443 67.3554 110.667 67.1319C110.891 66.9083 111.016 66.6052 111.016 66.289C111.016 65.9729 110.891 65.6697 110.667 65.4461C110.443 65.2226 110.14 65.097 109.824 65.097H103.865C103.55 65.0981 103.248 65.2241 103.025 65.4476C102.802 65.671 102.677 65.9736 102.677 66.289H102.673ZM114.591 66.289C114.591 66.4455 114.622 66.6005 114.682 66.7451C114.741 66.8897 114.829 67.0211 114.94 67.1318C115.05 67.2425 115.182 67.3303 115.326 67.3903C115.471 67.4502 115.626 67.481 115.782 67.481H121.741C122.057 67.481 122.36 67.3554 122.584 67.1319C122.808 66.9083 122.933 66.6052 122.933 66.289C122.933 65.9729 122.808 65.6697 122.584 65.4461C122.36 65.2226 122.057 65.097 121.741 65.097H115.777C115.462 65.0983 115.16 65.2245 114.938 65.448C114.716 65.6714 114.591 65.9738 114.591 66.289V66.289Z" fill="#B283FF" fill-opacity="0.5"/>
<path d="M522.478 136.462C522.794 136.462 523.097 136.588 523.321 136.811C523.544 137.035 523.67 137.338 523.67 137.654V140.422C523.67 140.738 523.544 141.041 523.321 141.265C523.097 141.488 522.794 141.614 522.478 141.614C522.162 141.614 521.858 141.488 521.635 141.265C521.411 141.041 521.286 140.738 521.286 140.422V137.658C521.285 137.501 521.316 137.346 521.375 137.201C521.435 137.056 521.523 136.924 521.633 136.813C521.744 136.701 521.876 136.613 522.021 136.553C522.165 136.493 522.321 136.462 522.478 136.462Z" fill="#B283FF" fill-opacity="0.5"/>
<path d="M525.596 133.689H528.362C528.678 133.689 528.982 133.815 529.205 134.038C529.429 134.262 529.554 134.565 529.554 134.881C529.554 135.197 529.429 135.5 529.205 135.724C528.982 135.947 528.678 136.073 528.362 136.073H525.596C525.28 136.073 524.977 135.947 524.753 135.724C524.53 135.5 524.404 135.197 524.404 134.881C524.404 134.565 524.53 134.262 524.753 134.038C524.977 133.815 525.28 133.689 525.596 133.689Z" fill="#B283FF" fill-opacity="0.5"/>
<path d="M522.478 127.963C522.634 127.963 522.789 127.994 522.934 128.053C523.078 128.113 523.21 128.201 523.32 128.311C523.431 128.422 523.519 128.553 523.579 128.698C523.639 128.843 523.67 128.998 523.67 129.154V131.917C523.67 132.233 523.544 132.536 523.321 132.76C523.097 132.983 522.794 133.109 522.478 133.109C522.162 133.109 521.858 132.983 521.635 132.76C521.411 132.536 521.286 132.233 521.286 131.917V129.154C521.286 128.998 521.316 128.843 521.376 128.698C521.436 128.553 521.524 128.422 521.635 128.311C521.746 128.201 521.877 128.113 522.022 128.053C522.166 127.994 522.321 127.963 522.478 127.963V127.963Z" fill="#B283FF" fill-opacity="0.5"/>
<path d="M516.593 133.499H519.355C519.671 133.499 519.975 133.625 520.198 133.848C520.421 134.071 520.547 134.375 520.547 134.691C520.547 135.007 520.421 135.31 520.198 135.533C519.975 135.756 519.671 135.882 519.355 135.882H516.589C516.273 135.882 515.97 135.756 515.747 135.533C515.523 135.31 515.398 135.007 515.398 134.691C515.398 134.375 515.523 134.071 515.747 133.848C515.97 133.625 516.273 133.499 516.589 133.499H516.593Z" fill="#B283FF" fill-opacity="0.5"/>
<path d="M222.719 59.198C223.035 59.198 223.338 59.3236 223.562 59.5471C223.785 59.7707 223.911 60.0739 223.911 60.39V63.153C223.911 63.4691 223.785 63.7723 223.562 63.9959C223.338 64.2194 223.035 64.345 222.719 64.345C222.403 64.345 222.1 64.2194 221.876 63.9959C221.652 63.7723 221.527 63.4691 221.527 63.153V60.39C221.527 60.0739 221.652 59.7707 221.876 59.5471C222.1 59.3236 222.403 59.198 222.719 59.198V59.198Z" fill="#B283FF" fill-opacity="0.5"/>
<path d="M225.837 56.425H228.603C228.919 56.425 229.223 56.5505 229.446 56.774C229.669 56.9974 229.795 57.3005 229.795 57.6165C229.795 57.9325 229.669 58.2356 229.446 58.459C229.223 58.6825 228.919 58.808 228.603 58.808H225.837C225.521 58.808 225.218 58.6825 224.995 58.459C224.772 58.2356 224.646 57.9325 224.646 57.6165C224.646 57.3005 224.772 56.9974 224.995 56.774C225.218 56.5505 225.521 56.425 225.837 56.425Z" fill="#B283FF" fill-opacity="0.5"/>
<path d="M222.719 50.698C223.035 50.698 223.338 50.8236 223.562 51.0471C223.785 51.2707 223.911 51.5739 223.911 51.89V54.653C223.911 54.9691 223.785 55.2723 223.562 55.4959C223.338 55.7194 223.035 55.845 222.719 55.845C222.403 55.845 222.1 55.7194 221.876 55.4959C221.652 55.2723 221.527 54.9691 221.527 54.653V51.89C221.527 51.5739 221.652 51.2707 221.876 51.0471C222.1 50.8236 222.403 50.698 222.719 50.698V50.698Z" fill="#B283FF" fill-opacity="0.5"/>
<path d="M216.835 56.236H219.596C219.912 56.236 220.215 56.3615 220.438 56.585C220.662 56.8084 220.787 57.1115 220.787 57.4275C220.787 57.7435 220.662 58.0466 220.438 58.27C220.215 58.4935 219.912 58.619 219.596 58.619H216.83C216.514 58.619 216.211 58.4935 215.987 58.27C215.764 58.0466 215.638 57.7435 215.638 57.4275C215.638 57.1115 215.764 56.8084 215.987 56.585C216.211 56.3615 216.514 56.236 216.83 56.236H216.835Z" fill="#B283FF" fill-opacity="0.5"/>
<path d="M333.826 0.00100708H361.067C361.383 0.00100708 361.686 0.126541 361.909 0.349991C362.133 0.57344 362.258 0.876503 362.258 1.19251C362.258 1.50851 362.133 1.81158 361.909 2.03503C361.686 2.25848 361.383 2.38401 361.067 2.38401H333.826C333.51 2.38401 333.207 2.25848 332.983 2.03503C332.76 1.81158 332.634 1.50851 332.634 1.19251C332.634 0.876503 332.76 0.57344 332.983 0.349991C333.207 0.126541 333.51 0.00100708 333.826 0.00100708V0.00100708Z" fill="#B283FF" fill-opacity="0.5"/>
<path d="M369.737 0H375.06C375.376 0 375.679 0.125534 375.902 0.348984C376.126 0.572433 376.251 0.875496 376.251 1.1915C376.251 1.50751 376.126 1.81057 375.902 2.03402C375.679 2.25747 375.376 2.383 375.06 2.383H369.737C369.421 2.383 369.118 2.25747 368.894 2.03402C368.671 1.81057 368.545 1.50751 368.545 1.1915C368.545 0.875496 368.671 0.572433 368.894 0.348984C369.118 0.125534 369.421 0 369.737 0V0Z" fill="#B283FF" fill-opacity="0.5"/>
<path d="M346.624 9.49602C346.624 9.65251 346.655 9.80745 346.715 9.95202C346.775 10.0966 346.863 10.2279 346.973 10.3385C347.084 10.4491 347.215 10.5368 347.36 10.5966C347.505 10.6564 347.66 10.6871 347.816 10.687H351.224C351.54 10.687 351.843 10.5615 352.067 10.338C352.29 10.1146 352.416 9.81152 352.416 9.49551C352.416 9.17951 352.29 8.87645 352.067 8.653C351.843 8.42955 351.54 8.30402 351.224 8.30402H347.816C347.5 8.30402 347.197 8.4296 346.973 8.65314C346.75 8.87669 346.624 9.17988 346.624 9.49602ZM355.99 9.49602C355.99 9.65251 356.021 9.80745 356.081 9.95202C356.141 10.0966 356.229 10.2279 356.339 10.3385C356.45 10.4491 356.581 10.5368 356.726 10.5966C356.871 10.6564 357.026 10.6871 357.182 10.687H363.141C363.457 10.687 363.76 10.5615 363.984 10.338C364.207 10.1146 364.333 9.81152 364.333 9.49551C364.333 9.17951 364.207 8.87645 363.984 8.653C363.76 8.42955 363.457 8.30402 363.141 8.30402H357.182C356.866 8.30402 356.563 8.4296 356.339 8.65314C356.116 8.87669 355.99 9.17988 355.99 9.49602ZM367.908 9.49602C367.908 9.81189 368.033 10.1148 368.257 10.3382C368.48 10.5615 368.783 10.687 369.099 10.687H375.058C375.374 10.687 375.677 10.5615 375.901 10.338C376.124 10.1146 376.25 9.81152 376.25 9.49551C376.25 9.17951 376.124 8.87645 375.901 8.653C375.677 8.42955 375.374 8.30402 375.058 8.30402H369.099C368.783 8.30428 368.48 8.42998 368.257 8.6535C368.033 8.87701 367.908 9.18005 367.908 9.49602Z" fill="#B283FF" fill-opacity="0.5"/>
<path d="M41.0117 124.858C41.0117 125.69 40.7649 126.504 40.3025 127.196C39.8401 127.888 39.1829 128.427 38.414 128.746C37.6451 129.064 36.799 129.148 35.9828 128.985C35.1665 128.823 34.4167 128.422 33.8282 127.834C33.2397 127.245 32.8389 126.495 32.6765 125.679C32.5142 124.863 32.5976 124.017 32.9161 123.248C33.2345 122.479 33.7739 121.822 34.4659 121.359C35.1579 120.897 35.9714 120.65 36.8037 120.65C37.3563 120.65 37.9036 120.759 38.4142 120.97C38.9248 121.181 39.3887 121.491 39.7795 121.882C40.1703 122.273 40.4803 122.737 40.6917 123.248C40.9031 123.758 41.0118 124.305 41.0117 124.858V124.858Z" fill="#B283FF" fill-opacity="0.5"/>
<path d="M592.678 331.047H565.437C565.121 331.047 564.818 330.921 564.594 330.698C564.371 330.475 564.245 330.172 564.245 329.855C564.245 329.539 564.371 329.236 564.594 329.013C564.818 328.79 565.121 328.664 565.437 328.664H592.678C592.994 328.664 593.297 328.79 593.52 329.013C593.744 329.236 593.869 329.539 593.869 329.855C593.869 330.172 593.744 330.475 593.52 330.698C593.297 330.921 592.994 331.047 592.678 331.047V331.047Z" fill="#B283FF" fill-opacity="0.5"/>
<path d="M606.671 331.052H601.348C601.032 331.052 600.729 330.926 600.505 330.703C600.282 330.48 600.156 330.177 600.156 329.861C600.156 329.544 600.282 329.241 600.505 329.018C600.729 328.795 601.032 328.669 601.348 328.669H606.671C606.987 328.669 607.29 328.795 607.513 329.018C607.737 329.241 607.862 329.544 607.862 329.861C607.862 330.177 607.737 330.48 607.513 330.703C607.29 330.926 606.987 331.052 606.671 331.052V331.052Z" fill="#B283FF" fill-opacity="0.5"/>
<path d="M77.9448 350.427C77.9448 350.427 76.3178 362.036 89.8778 361.768C89.8778 361.768 78.2308 361.886 78.5358 372.78C78.5358 372.78 77.4888 364.211 66.7998 362.297C66.7998 362.296 75.8328 364.367 77.9448 350.427Z" fill="#B283FF" fill-opacity="0.5"/>
<path d="M13.2055 186.692C13.2055 186.692 11.5785 198.301 25.1385 198.033C25.1385 198.033 13.4915 198.151 13.7975 209.045C13.7975 209.045 12.7485 200.476 2.06152 198.562C2.06252 198.561 11.0935 200.633 13.2055 186.692Z" fill="#B283FF" fill-opacity="0.5"/>
<path d="M443.275 29.527C443.275 29.527 441.645 41.135 455.205 40.866C455.205 40.866 443.558 40.986 443.863 51.877C443.863 51.877 442.816 43.309 432.127 41.394C432.127 41.395 441.16 43.467 443.275 29.527Z" fill="#B283FF" fill-opacity="0.5"/>
<path d="M559.999 61.585C559.999 61.585 558.373 73.194 571.932 72.926C571.932 72.926 560.284 73.046 560.59 83.938C560.59 83.938 559.543 75.369 548.854 73.455C548.854 73.454 557.885 75.527 559.999 61.585Z" fill="#B283FF" fill-opacity="0.5"/>
<path d="M489.252 11.97C489.252 11.97 488.686 16.015 493.412 15.923C493.412 15.923 489.351 15.964 489.461 19.762C489.461 19.762 489.096 16.774 485.37 16.106C485.366 16.106 488.515 16.828 489.252 11.97Z" fill="#B283FF" fill-opacity="0.5"/>
<path d="M276.911 151.463C276.911 151.463 276.345 155.508 281.071 155.416C281.071 155.416 277.01 155.457 277.12 159.255C276.92 158.288 276.414 157.41 275.677 156.752C274.941 156.094 274.012 155.69 273.029 155.599C273.029 155.599 276.176 156.321 276.911 151.463Z" fill="#B283FF" fill-opacity="0.5"/>
<path d="M670.342 220.62C670.342 220.62 669.776 224.665 674.5 224.573C674.5 224.573 670.44 224.614 670.548 228.412C670.548 228.412 670.183 225.424 666.457 224.757C666.458 224.757 669.606 225.478 670.342 220.62Z" fill="#B283FF" fill-opacity="0.5"/>
<path d="M317.284 329.7C317.284 329.7 316.718 333.746 321.444 333.654C321.444 333.654 317.383 333.695 317.493 337.492C317.293 336.525 316.787 335.648 316.05 334.99C315.314 334.332 314.385 333.927 313.402 333.837C313.402 333.837 316.549 334.559 317.284 329.7Z" fill="#B283FF" fill-opacity="0.5"/>
<path d="M477.941 264.487H504.391C506.011 264.501 507.569 263.874 508.728 262.744C509.887 261.613 510.553 260.07 510.579 258.451C510.605 256.832 509.991 255.269 508.869 254.101C507.748 252.933 506.21 252.256 504.592 252.217C504.555 250.185 503.868 248.219 502.632 246.606C501.395 244.994 499.674 243.82 497.722 243.258C495.769 242.696 493.687 242.775 491.783 243.483C489.878 244.191 488.251 245.491 487.14 247.192C485.471 246.947 483.771 247.323 482.361 248.249C480.951 249.174 479.93 250.585 479.49 252.213H477.941C476.327 252.234 474.786 252.889 473.652 254.038C472.518 255.186 471.882 256.735 471.882 258.349C471.882 259.964 472.518 261.513 473.652 262.661C474.786 263.81 476.327 264.465 477.941 264.486V264.487ZM504.391 254.03C504.964 254.021 505.533 254.127 506.065 254.34C506.597 254.553 507.081 254.87 507.489 255.272C507.898 255.674 508.222 256.153 508.443 256.682C508.664 257.21 508.778 257.778 508.778 258.351C508.778 258.923 508.664 259.491 508.443 260.019C508.222 260.548 507.898 261.027 507.489 261.429C507.081 261.831 506.597 262.148 506.065 262.361C505.533 262.574 504.964 262.68 504.391 262.671H477.941C477.368 262.68 476.799 262.574 476.267 262.361C475.735 262.148 475.251 261.831 474.843 261.429C474.434 261.027 474.11 260.548 473.889 260.019C473.668 259.491 473.554 258.923 473.554 258.351C473.554 257.778 473.668 257.21 473.889 256.682C474.11 256.153 474.434 255.674 474.843 255.272C475.251 254.87 475.735 254.553 476.267 254.34C476.799 254.127 477.368 254.021 477.941 254.03H480.994L481.115 253.264C481.219 252.562 481.469 251.89 481.848 251.291C482.227 250.691 482.728 250.178 483.318 249.784C483.908 249.39 484.574 249.125 485.273 249.004C485.972 248.883 486.689 248.911 487.377 249.084L488.045 249.244L488.38 248.644C489.207 247.157 490.504 245.987 492.068 245.318C493.632 244.648 495.374 244.516 497.02 244.944C498.667 245.371 500.125 246.333 501.166 247.678C502.207 249.024 502.772 250.677 502.773 252.378C502.773 252.602 502.758 252.825 502.739 253.043L502.654 254.029L504.391 254.03Z" fill="#B283FF" fill-opacity="0.5"/>
<path d="M6.05865 40.635H32.5107C34.1224 40.6372 35.6704 40.0052 36.8201 38.8757C37.9698 37.7461 38.6289 36.2096 38.6552 34.598C38.6814 32.9865 38.0727 31.4293 36.9604 30.2629C35.8481 29.0964 34.3217 28.4144 32.7107 28.364C32.6737 26.3327 31.9866 24.3668 30.7501 22.7548C29.5135 21.1428 27.7928 19.9697 25.8405 19.4076C23.8881 18.8455 21.8071 18.9242 19.9027 19.6319C17.9984 20.3397 16.3711 21.6393 15.2597 23.34C13.5911 23.0959 11.8908 23.4721 10.481 24.3975C9.07111 25.3228 8.04955 26.733 7.60968 28.361H6.05865C4.44472 28.3816 2.90391 29.0372 1.7699 30.1858C0.635889 31.3344 0 32.8835 0 34.4975C0 36.1116 0.635889 37.6607 1.7699 38.8092C2.90391 39.9578 4.44472 40.6134 6.05865 40.634V40.635ZM32.5107 30.178C33.0836 30.1693 33.6525 30.2746 34.1843 30.4878C34.7162 30.701 35.2003 31.0179 35.6085 31.42C36.0167 31.822 36.3409 32.3012 36.5622 32.8298C36.7835 33.3583 36.8974 33.9255 36.8974 34.4985C36.8974 35.0715 36.7835 35.6387 36.5622 36.1673C36.3409 36.6958 36.0167 37.175 35.6085 37.5771C35.2003 37.9791 34.7162 38.296 34.1843 38.5092C33.6525 38.7224 33.0836 38.8277 32.5107 38.819H6.05865C5.48575 38.8277 4.91684 38.7224 4.38501 38.5092C3.85318 38.296 3.3691 37.9791 2.96088 37.5771C2.55265 37.175 2.22848 36.6958 2.0072 36.1673C1.78592 35.6387 1.67194 35.0715 1.67194 34.4985C1.67194 33.9255 1.78592 33.3583 2.0072 32.8298C2.22848 32.3012 2.55265 31.822 2.96088 31.42C3.3691 31.0179 3.85318 30.701 4.38501 30.4878C4.91684 30.2746 5.48575 30.1693 6.05865 30.178H9.11267L9.2337 29.412C9.33774 28.7106 9.58752 28.0387 9.96698 27.4397C10.3464 26.8407 10.8471 26.3278 11.4368 25.934C12.0265 25.5402 12.6922 25.2743 13.3909 25.1534C14.0896 25.0325 14.8059 25.0593 15.4937 25.232L16.1617 25.392L16.4967 24.792C17.3237 23.3047 18.6211 22.1342 20.1854 21.4642C21.7497 20.7942 23.4922 20.6626 25.1393 21.0901C26.7865 21.5176 28.2451 22.48 29.286 23.8263C30.327 25.1725 30.8914 26.8263 30.8907 28.528C30.8907 28.752 30.8757 28.973 30.8557 29.193L30.7717 30.178H32.5107Z" fill="#B283FF" fill-opacity="0.5"/>
<path d="M415.628 108.169H442.08C443.699 108.183 445.258 107.556 446.417 106.426C447.576 105.295 448.241 103.752 448.267 102.133C448.294 100.514 447.679 98.9506 446.557 97.7828C445.436 96.6151 443.898 95.9379 442.28 95.899C442.243 93.8677 441.555 91.9018 440.319 90.2898C439.082 88.6778 437.362 87.5046 435.409 86.9426C433.457 86.3805 431.376 86.4591 429.472 87.1669C427.567 87.8747 425.94 89.1743 424.829 90.875C423.16 90.6309 421.46 91.0071 420.05 91.9324C418.64 92.8578 417.618 94.268 417.179 95.896H415.632C414.004 95.896 412.444 96.5425 411.293 97.6932C410.142 98.8439 409.496 100.405 409.496 102.032C409.496 103.659 410.142 105.22 411.293 106.371C412.444 107.522 414.004 108.168 415.632 108.168L415.628 108.169ZM442.08 97.712C442.652 97.7033 443.221 97.8086 443.753 98.0218C444.285 98.235 444.769 98.5519 445.177 98.9539C445.586 99.356 445.91 99.8352 446.131 100.364C446.352 100.892 446.466 101.46 446.466 102.032C446.466 102.605 446.352 103.173 446.131 103.701C445.91 104.23 445.586 104.709 445.177 105.111C444.769 105.513 444.285 105.83 443.753 106.043C443.221 106.256 442.652 106.362 442.08 106.353H415.628C415.055 106.362 414.486 106.256 413.954 106.043C413.422 105.83 412.938 105.513 412.53 105.111C412.122 104.709 411.797 104.23 411.576 103.701C411.355 103.173 411.241 102.605 411.241 102.032C411.241 101.46 411.355 100.892 411.576 100.364C411.797 99.8352 412.122 99.356 412.53 98.9539C412.938 98.5519 413.422 98.235 413.954 98.0218C414.486 97.8086 415.055 97.7033 415.628 97.712H418.682L418.803 96.946C418.907 96.2445 419.157 95.5726 419.536 94.9736C419.916 94.3746 420.417 93.8617 421.006 93.4679C421.596 93.0742 422.262 92.8083 422.961 92.6874C423.659 92.5665 424.376 92.5933 425.064 92.766L425.732 92.926L426.067 92.326C426.893 90.8389 428.191 89.6684 429.755 88.9984C431.319 88.3283 433.061 88.1966 434.708 88.6238C436.355 89.0511 437.814 90.0132 438.855 91.3591C439.896 92.7049 440.461 94.3584 440.461 96.06C440.461 96.284 440.446 96.506 440.426 96.725L440.342 97.711L442.08 97.712Z" fill="#B283FF" fill-opacity="0.5"/>
<path d="M332.785 447.257C335.486 448.021 338.311 448.246 341.099 447.919C343.888 447.591 346.584 446.717 349.035 445.348C351.485 443.978 353.642 442.139 355.382 439.936C357.122 437.733 358.41 435.208 359.175 432.507L376.137 372.56C376.901 369.859 377.126 367.033 376.798 364.245C376.471 361.457 375.597 358.76 374.227 356.31C372.858 353.859 371.019 351.702 368.816 349.962C366.612 348.222 364.088 346.933 361.387 346.169V346.169C355.931 344.626 350.086 345.313 345.137 348.079C340.188 350.845 336.54 355.464 334.996 360.919L318.034 420.867C317.269 423.568 317.045 426.394 317.372 429.182C317.7 431.97 318.573 434.667 319.943 437.117C321.313 439.568 323.152 441.725 325.355 443.464C327.559 445.204 330.083 446.493 332.785 447.257V447.257Z" fill="#3A2246"/>
<path d="M356.993 446.752C361.041 442.782 363.346 437.367 363.401 431.697C363.456 426.028 361.256 420.569 357.286 416.521L313.663 372.042C311.697 370.038 309.356 368.44 306.773 367.341C304.19 366.241 301.415 365.661 298.608 365.634C295.801 365.607 293.015 366.133 290.411 367.182C287.807 368.231 285.435 369.783 283.431 371.749V371.749C279.384 375.719 277.079 381.134 277.024 386.803C276.969 392.473 279.168 397.931 283.138 401.979L326.761 446.458C328.727 448.462 331.068 450.06 333.651 451.16C336.235 452.259 339.009 452.839 341.816 452.866C344.624 452.894 347.409 452.368 350.013 451.319C352.617 450.27 354.989 448.718 356.993 446.752V446.752Z" fill="#3A2246"/>
<path d="M270.184 361.333C268.13 364.417 267.038 368.04 267.043 371.744C267.049 375.449 268.154 379.069 270.217 382.146C272.28 385.223 275.209 387.619 278.634 389.031C282.059 390.443 285.825 390.808 289.458 390.08C293.09 389.351 296.425 387.562 299.04 384.938C301.656 382.315 303.434 378.974 304.151 375.34C304.868 371.705 304.491 367.94 303.068 364.519C301.645 361.099 299.24 358.177 296.157 356.124C294.109 354.761 291.813 353.814 289.4 353.338C286.987 352.862 284.503 352.865 282.091 353.349C279.679 353.833 277.386 354.787 275.343 356.157C273.3 357.527 271.547 359.286 270.184 361.333V361.333Z" fill="#FF7878"/>
<path d="M298.32 369.012C298.941 369.172 299.587 369.208 300.222 369.118C300.856 369.028 301.467 368.814 302.019 368.488C302.571 368.162 303.053 367.731 303.439 367.218C303.824 366.706 304.104 366.123 304.264 365.502L305.925 359.057C306.248 357.804 306.06 356.473 305.402 355.358C304.744 354.244 303.67 353.436 302.416 353.113C301.795 352.953 301.149 352.917 300.515 353.007C299.88 353.096 299.269 353.31 298.717 353.636C298.165 353.962 297.682 354.393 297.297 354.906C296.912 355.418 296.631 356.001 296.471 356.622L294.811 363.067C294.651 363.688 294.615 364.334 294.705 364.969C294.795 365.603 295.008 366.214 295.334 366.766C295.66 367.318 296.092 367.801 296.604 368.186C297.116 368.572 297.699 368.852 298.32 369.012V369.012Z" fill="#FF7878"/>
<path d="M279.531 346.819L286.168 363.619C286.413 364.238 286.776 364.803 287.239 365.281C287.702 365.76 288.254 366.142 288.865 366.407C289.475 366.672 290.132 366.814 290.797 366.825C291.462 366.836 292.123 366.716 292.742 366.471V366.471C293.992 365.977 294.995 365.007 295.53 363.774C296.065 362.541 296.088 361.146 295.594 359.896L288.957 343.096C288.713 342.477 288.349 341.912 287.886 341.434C287.424 340.956 286.871 340.573 286.261 340.309C285.651 340.044 284.994 339.902 284.329 339.891C283.663 339.88 283.002 340 282.383 340.245V340.245C281.764 340.489 281.2 340.853 280.721 341.316C280.243 341.779 279.861 342.331 279.596 342.941C279.331 343.552 279.189 344.208 279.178 344.874C279.167 345.539 279.287 346.2 279.531 346.819V346.819Z" fill="#FF7878"/>
<path d="M267.835 350.341L275.85 366.531C276.145 367.127 276.555 367.66 277.056 368.098C277.557 368.536 278.139 368.871 278.769 369.084C279.4 369.297 280.066 369.383 280.73 369.339C281.394 369.294 282.042 369.119 282.638 368.824V368.824C283.235 368.529 283.767 368.119 284.205 367.618C284.643 367.117 284.978 366.535 285.191 365.905C285.404 365.274 285.491 364.608 285.446 363.944C285.402 363.28 285.227 362.631 284.931 362.035L276.917 345.845C276.321 344.641 275.271 343.723 273.998 343.293C272.725 342.863 271.333 342.956 270.128 343.552V343.552C269.532 343.847 269 344.257 268.561 344.758C268.123 345.259 267.788 345.841 267.575 346.471C267.363 347.102 267.276 347.768 267.32 348.432C267.365 349.096 267.54 349.745 267.835 350.341V350.341Z" fill="#FF7878"/>
<path d="M259.132 359.356L270.325 373.536C271.158 374.591 272.376 375.272 273.71 375.429C275.045 375.586 276.387 375.206 277.442 374.374V374.374C278.497 373.541 279.178 372.323 279.335 370.989C279.492 369.654 279.112 368.312 278.279 367.257L267.087 353.077C266.255 352.023 265.037 351.342 263.702 351.185C262.368 351.028 261.026 351.407 259.97 352.239V352.239C258.916 353.072 258.235 354.289 258.078 355.624C257.921 356.959 258.3 358.301 259.132 359.356V359.356Z" fill="#FF7878"/>
<path d="M388.081 324.796L377.315 325.216C375.434 325.29 373.601 324.613 372.219 323.335C370.837 322.056 370.019 320.281 369.945 318.4L368.37 278.035L393.322 277.06L394.897 317.426C394.971 319.307 394.294 321.141 393.016 322.523C391.738 323.905 389.963 324.722 388.081 324.796V324.796Z" fill="#FF7878"/>
<path d="M368.353 276.674L393.307 275.693L393.692 285.493C394.07 295.093 386.252 303.528 376.664 302.83C374.066 302.642 371.545 301.867 369.291 300.564L368.353 276.674Z" fill="#D15E79"/>
<path d="M390.68 227.784C374.146 223.109 357.824 229.643 354.223 242.378C350.623 255.112 361.107 269.225 377.641 273.9C394.175 278.575 410.498 272.041 414.098 259.307C417.699 246.572 407.214 232.459 390.68 227.784Z" fill="#1A0B21"/>
<path d="M367.824 231.916C352.768 229.365 339.217 235.243 337.557 245.044C335.897 254.845 346.756 264.858 361.813 267.408C376.869 269.958 390.42 264.08 392.08 254.279C393.74 244.478 382.88 234.466 367.824 231.916Z" fill="#1A0B21"/>
<path d="M392.435 226.599C381.226 216.231 366.669 213.74 359.92 221.036C353.17 228.332 356.785 242.652 367.993 253.02C379.201 263.389 393.759 265.879 400.508 258.583C407.258 251.287 403.643 236.968 392.435 226.599Z" fill="#1A0B21"/>
<path d="M353.891 270.486C351.434 284.252 358.639 297.054 369.981 299.078C381.322 301.102 392.508 291.578 394.964 277.817L396.897 266.983C399.353 253.217 393.839 237.024 382.5 235C371.157 232.976 358.28 245.891 355.824 259.653L353.891 270.486Z" fill="#FF7878"/>
<path d="M378.122 236.755C384.395 231.078 395.313 233.823 402.508 242.888C409.703 251.953 410.45 263.905 404.176 269.588C397.902 275.271 386.986 272.521 379.791 263.454C372.596 254.387 371.85 242.434 378.122 236.755Z" fill="#1A0B21"/>
<path d="M373.986 267.426C374.229 267.427 374.465 267.35 374.661 267.207C374.857 267.064 375.002 266.862 375.075 266.631C375.148 266.4 375.145 266.151 375.067 265.921C374.988 265.692 374.838 265.493 374.639 265.355C373.521 264.616 372.223 264.196 370.884 264.139C369.545 264.082 368.216 264.39 367.039 265.031C366.777 265.183 366.587 265.433 366.51 265.726C366.432 266.018 366.474 266.33 366.627 266.592C366.779 266.853 367.029 267.044 367.321 267.121C367.614 267.198 367.925 267.156 368.187 267.004C368.988 266.575 369.89 266.37 370.798 266.41C371.706 266.449 372.586 266.733 373.347 267.23C373.536 267.358 373.758 267.426 373.986 267.426Z" fill="#3A2246"/>
<path d="M354.308 267.43C354.538 267.431 354.763 267.361 354.953 267.23V267.23C355.713 266.733 356.594 266.449 357.502 266.409C358.41 266.369 359.312 266.575 360.113 267.004C360.374 267.152 360.683 267.191 360.973 267.112C361.262 267.034 361.509 266.844 361.66 266.585C361.811 266.325 361.854 266.017 361.779 265.726C361.705 265.436 361.518 265.186 361.261 265.032C360.085 264.387 358.755 264.076 357.416 264.133C356.076 264.19 354.777 264.613 353.661 265.356C353.461 265.494 353.311 265.693 353.232 265.923C353.154 266.153 353.15 266.402 353.223 266.633C353.296 266.865 353.441 267.068 353.637 267.211C353.833 267.355 354.07 267.432 354.313 267.431L354.308 267.43Z" fill="#3A2246"/>
<path d="M368.84 270.496C368.849 270.731 368.927 270.959 369.065 271.149C369.203 271.34 369.395 271.485 369.616 271.567C369.837 271.649 370.077 271.663 370.306 271.608C370.535 271.554 370.742 271.432 370.902 271.259C371.062 271.087 371.167 270.87 371.204 270.638C371.241 270.405 371.208 270.167 371.11 269.953C371.011 269.739 370.851 269.559 370.651 269.436C370.45 269.313 370.217 269.253 369.982 269.262C369.667 269.274 369.369 269.411 369.155 269.643C368.941 269.874 368.828 270.181 368.84 270.496Z" fill="#3A2246"/>
<path d="M357.428 270.944C357.437 271.179 357.516 271.406 357.655 271.597C357.794 271.787 357.986 271.932 358.207 272.013C358.428 272.094 358.668 272.108 358.897 272.053C359.125 271.997 359.333 271.875 359.492 271.702C359.652 271.529 359.756 271.312 359.793 271.08C359.829 270.847 359.795 270.609 359.696 270.395C359.597 270.182 359.437 270.002 359.236 269.88C359.035 269.757 358.802 269.697 358.567 269.707C358.252 269.72 357.955 269.858 357.741 270.09C357.528 270.322 357.415 270.629 357.428 270.944V270.944Z" fill="#3A2246"/>
<path d="M354.653 279.223C354.779 279.223 354.906 279.223 355.033 279.214C357.472 279.106 359.77 278.04 361.427 276.248C363.085 274.456 363.968 272.082 363.885 269.642C363.802 267.202 362.76 264.893 360.985 263.217C359.209 261.542 356.845 260.634 354.404 260.692C351.963 260.749 349.644 261.768 347.95 263.526C346.256 265.284 345.325 267.639 345.357 270.081C345.39 272.522 346.385 274.851 348.125 276.563C349.866 278.275 352.212 279.231 354.653 279.223ZM354.673 262.087C356.705 262.095 358.653 262.897 360.101 264.322C361.549 265.748 362.382 267.683 362.421 269.715C362.46 271.747 361.703 273.713 360.311 275.193C358.919 276.673 357.003 277.55 354.973 277.636C352.913 277.705 350.908 276.965 349.387 275.575C348.257 274.531 347.462 273.176 347.102 271.68C346.743 270.185 346.835 268.616 347.367 267.173C347.899 265.73 348.848 264.477 350.092 263.573C351.336 262.668 352.821 262.153 354.358 262.093C354.464 262.085 354.568 262.085 354.673 262.085V262.087Z" fill="#FFD2D4"/>
<path d="M374.759 279.583C374.9 279.583 375.042 279.583 375.183 279.573C377.26 279.492 379.266 278.796 380.947 277.575C382.628 276.353 383.91 274.66 384.629 272.71C385.349 270.761 385.474 268.641 384.989 266.62C384.504 264.599 383.43 262.768 381.904 261.357C379.857 259.466 377.143 258.465 374.359 258.574C371.575 258.683 368.947 259.893 367.055 261.939C365.669 263.439 364.751 265.309 364.411 267.323C364.071 269.336 364.325 271.405 365.142 273.276C365.958 275.148 367.302 276.741 369.009 277.861C370.717 278.981 372.713 279.579 374.755 279.583H374.759ZM374.782 260.343C377.037 260.345 379.203 261.219 380.828 262.783C382.452 264.346 383.409 266.478 383.497 268.731V268.731C383.585 271.044 382.752 273.298 381.18 274.997C379.609 276.697 377.427 277.704 375.114 277.797C373.963 277.851 372.813 277.677 371.729 277.284C370.646 276.892 369.651 276.289 368.802 275.51C367.953 274.731 367.266 273.792 366.782 272.746C366.297 271.701 366.025 270.57 365.979 269.419C365.934 268.267 366.117 267.118 366.518 266.038C366.919 264.958 367.53 263.968 368.315 263.125C369.1 262.281 370.045 261.602 371.094 261.126C372.143 260.649 373.276 260.385 374.428 260.349C374.545 260.343 374.663 260.343 374.781 260.343H374.782Z" fill="#FFD2D4"/>
<path d="M366.075 270.713L362.21 270.865C362.103 270.869 361.996 270.853 361.896 270.816C361.795 270.779 361.703 270.722 361.625 270.65C361.546 270.577 361.482 270.49 361.438 270.392C361.393 270.295 361.368 270.19 361.364 270.083V270.083C361.36 269.976 361.376 269.87 361.413 269.769C361.45 269.669 361.507 269.577 361.579 269.499C361.652 269.42 361.739 269.357 361.836 269.312C361.933 269.267 362.038 269.242 362.145 269.238L366.01 269.086C366.117 269.082 366.224 269.098 366.324 269.135C366.425 269.172 366.517 269.229 366.596 269.301C366.674 269.374 366.738 269.461 366.783 269.559C366.828 269.656 366.853 269.761 366.857 269.868V269.868C366.865 270.084 366.787 270.294 366.641 270.452C366.494 270.611 366.291 270.704 366.075 270.713Z" fill="#FFD2D4"/>
<path d="M358.334 276.193C358.444 277.551 360.021 278.788 361.855 278.957C363.689 279.126 365.088 278.157 364.979 276.803C364.87 275.449 363.292 274.203 361.457 274.037C359.622 273.871 358.221 274.834 358.334 276.193Z" fill="#3A2246"/>
<path d="M359.112 283.498C359.239 285.071 359.985 286.529 361.186 287.553C362.386 288.577 363.944 289.083 365.517 288.961C368.931 288.826 370.901 285.446 370.778 282.294C366.848 281.912 362.881 282.322 359.112 283.498V283.498Z" fill="#3A2246"/>
<path d="M365.023 285.473C367.723 285.16 369.386 284.235 369.546 282.206C366.225 282.011 362.896 282.382 359.699 283.301C360.159 285.125 362.378 285.773 365.023 285.473Z" fill="#FFD2D4"/>
<path d="M373.001 290.22L379.711 290.214C382.415 290.216 385.022 289.212 387.027 287.398L391.227 283.609C391.383 283.463 391.475 283.262 391.484 283.049C391.493 282.836 391.418 282.627 391.275 282.469C391.132 282.311 390.932 282.215 390.719 282.202C390.506 282.189 390.297 282.261 390.136 282.401L385.936 286.19C384.231 287.735 382.012 288.59 379.711 288.59L373.001 288.596C372.785 288.596 372.578 288.682 372.425 288.834C372.273 288.987 372.187 289.194 372.187 289.41C372.187 289.626 372.273 289.833 372.425 289.986C372.578 290.138 372.785 290.224 373.001 290.224V290.22Z" fill="#3A2246"/>
<path d="M373.002 291.034H375.722C376.154 291.034 376.568 290.862 376.874 290.557C377.179 290.251 377.351 289.837 377.351 289.405C377.351 288.973 377.179 288.559 376.874 288.253C376.568 287.948 376.154 287.776 375.722 287.776V287.776H373.002C372.57 287.776 372.156 287.948 371.85 288.253C371.545 288.558 371.374 288.973 371.374 289.405C371.374 289.836 371.545 290.251 371.85 290.556C372.156 290.861 372.57 291.033 373.002 291.033V291.034Z" fill="#FFD2D4"/>
<path d="M407.681 270.521C405.116 263.438 397.294 259.775 390.21 262.34C383.127 264.906 379.464 272.728 382.029 279.811C384.595 286.895 392.417 290.557 399.5 287.992C406.584 285.427 410.246 277.605 407.681 270.521Z" fill="#1A0B21"/>
<path d="M407.488 274.669C407.235 268.243 402.267 263.221 396.392 263.452C390.516 263.683 385.958 269.08 386.21 275.506C386.463 281.932 391.431 286.955 397.307 286.724C403.182 286.493 407.741 281.096 407.488 274.669Z" fill="#B283FF" fill-opacity="0.5"/>
<path d="M395.187 275.154C395.287 277.754 397.01 279.804 399.03 279.724C401.05 279.644 402.604 277.47 402.501 274.866C402.398 272.262 400.678 270.216 398.658 270.296C396.638 270.376 395.085 272.551 395.187 275.154Z" fill="#1A0B21"/>
<path d="M361.897 465.606L427.148 467.444C429.734 467.342 432.275 466.732 434.626 465.648C436.977 464.565 439.091 463.028 440.848 461.128C442.606 459.227 443.971 456.998 444.867 454.57C445.763 452.141 446.171 449.56 446.07 446.973L441.948 337.773C441.839 334.986 440.874 332.301 439.184 330.082C437.494 327.863 435.162 326.219 432.505 325.373L383.86 309.884L344.976 328.52C342.586 329.665 340.584 331.484 339.217 333.754C337.849 336.023 337.176 338.643 337.281 341.291L341.426 446.678C341.526 449.265 342.136 451.807 343.219 454.159C344.303 456.51 345.839 458.625 347.74 460.383C349.641 462.14 351.87 463.506 354.299 464.403C356.728 465.299 359.309 465.708 361.897 465.606Z" fill="#3A2246"/>
<path d="M337.28 341.297C337.055 352.684 337.186 364.056 337.373 375.426C337.523 386.797 337.928 398.159 338.333 409.52C338.817 420.878 339.307 432.236 340.048 443.583C340.074 446.53 340.528 449.457 341.397 452.273C342.826 456.471 345.623 460.068 349.341 462.486C353.058 464.904 357.481 466.002 361.897 465.605C359.104 465.558 356.353 464.92 353.824 463.734C351.295 462.547 349.046 460.838 347.225 458.72C345.432 456.674 344.111 454.258 343.357 451.643C342.695 448.977 342.426 446.229 342.557 443.486C342.406 432.115 342.002 420.754 341.592 409.392C341.104 398.035 340.616 386.677 339.871 375.328C339.161 363.978 338.399 352.631 337.28 341.297Z" fill="#1A0B21"/>
<path d="M401.219 328.275L366.002 330.547L364.592 308.681C364.56 308.185 364.626 307.686 364.786 307.215C364.946 306.744 365.198 306.309 365.527 305.935C365.855 305.561 366.254 305.256 366.701 305.036C367.148 304.817 367.633 304.688 368.13 304.656L395.787 302.872C396.283 302.84 396.781 302.906 397.252 303.067C397.723 303.227 398.157 303.479 398.531 303.807C398.904 304.136 399.209 304.535 399.429 304.981C399.648 305.428 399.777 305.913 399.809 306.409L401.219 328.275Z" fill="#3A2246"/>
<path d="M470.919 433.597C473.512 432.521 475.867 430.944 477.85 428.957C479.834 426.97 481.406 424.612 482.479 422.018C483.551 419.423 484.101 416.643 484.099 413.835C484.096 411.028 483.54 408.249 482.464 405.656L458.564 348.124C456.389 342.888 452.223 338.73 446.983 336.566C441.743 334.401 435.858 334.407 430.622 336.581V336.581C425.386 338.756 421.228 342.921 419.063 348.161C416.898 353.401 416.904 359.286 419.078 364.522L442.978 422.058C445.153 427.293 449.319 431.45 454.559 433.614C459.798 435.778 465.683 435.772 470.919 433.597V433.597Z" fill="#3A2246"/>
<path d="M430.625 336.577C426.726 337.874 423.292 340.285 420.75 343.513C418.18 346.854 416.621 350.861 416.256 355.06C415.691 359.245 417.037 363.706 418.575 367.307L423.086 378.407C426.186 385.771 429.286 393.132 432.625 400.396L437.642 411.29C439.424 414.875 441.102 418.503 442.976 422.05C441.785 418.221 440.399 414.47 439.117 410.678L434.94 399.436C432.149 391.943 429.124 384.549 426.094 377.158L421.414 366.124C420.575 364.401 419.898 362.604 419.39 360.756C418.924 358.941 418.707 357.071 418.744 355.198C418.877 351.315 420.05 347.539 422.14 344.264C424.229 340.989 427.159 338.334 430.625 336.577Z" fill="#1A0B21"/>
<path d="M371.421 403.444L382.307 402.744C384.269 402.615 386.1 401.714 387.398 400.237C388.696 398.76 389.355 396.828 389.23 394.866L388.913 389.958C388.784 387.997 387.882 386.167 386.406 384.869C384.929 383.572 382.998 382.913 381.036 383.037L370.15 383.737L371.421 403.444ZM381.35 387.91C382.02 387.868 382.678 388.093 383.182 388.536C383.685 388.979 383.992 389.603 384.036 390.272L384.353 395.18C384.396 395.849 384.171 396.507 383.729 397.011C383.286 397.514 382.662 397.822 381.993 397.866L375.983 398.254L375.341 388.299L381.35 387.91Z" fill="#3A2246"/>
<path d="M360.835 419.1L370.251 418.493C372.996 418.316 375.559 417.055 377.375 414.989C379.191 412.922 380.112 410.219 379.936 407.473L377.983 377.205C377.766 373.828 347.645 375.771 347.863 379.148L349.815 409.416C349.992 412.162 351.253 414.724 353.32 416.54C355.386 418.356 358.09 419.277 360.835 419.1V419.1Z" fill="#D15E79"/>
<path d="M350.864 379.966C350.943 381.183 356.535 381.811 363.354 381.371C370.173 380.931 375.637 379.589 375.56 378.371C375.483 377.153 369.889 376.526 363.07 376.966C356.251 377.406 350.786 378.751 350.864 379.966Z" fill="#3A2246"/>
<path d="M482.765 414.376C482.721 411.569 482.124 408.798 481.009 406.222C479.894 403.645 478.282 401.314 476.266 399.36C474.249 397.407 471.868 395.869 469.258 394.836C466.647 393.803 463.859 393.294 461.052 393.339L398.76 394.322C393.091 394.412 387.69 396.75 383.745 400.821C379.799 404.893 377.633 410.365 377.722 416.034C377.766 418.841 378.363 421.612 379.478 424.188C380.593 426.765 382.204 429.096 384.221 431.05C386.237 433.004 388.618 434.541 391.228 435.574C393.839 436.607 396.627 437.116 399.434 437.072L461.726 436.088C464.533 436.044 467.304 435.447 469.88 434.332C472.457 433.217 474.789 431.606 476.742 429.59C478.696 427.574 480.233 425.192 481.267 422.582C482.3 419.972 482.809 417.183 482.765 414.376V414.376Z" fill="#3A2246"/>
<path d="M461.053 393.338C453.053 392.792 445.061 392.602 437.069 392.469C429.076 392.297 421.087 392.382 413.098 392.469L401.116 392.743C397.202 392.77 392.57 393.305 388.956 395.49C385.249 397.499 382.194 400.525 380.15 404.212C378.202 407.831 377.358 411.942 377.722 416.036C377.956 412.158 379.226 408.414 381.4 405.194C383.573 401.974 386.571 399.396 390.08 397.728C391.784 396.951 393.584 396.406 395.433 396.107C397.33 395.839 399.249 395.746 401.164 395.828L413.148 395.728C421.136 395.561 429.123 395.393 437.107 394.968C445.092 394.576 453.075 394.136 461.053 393.338Z" fill="#1A0B21"/>
<path d="M389.296 399.375C382.686 391.409 370.87 390.311 362.904 396.921C354.939 403.532 353.84 415.348 360.45 423.313C367.061 431.279 378.877 432.377 386.842 425.767C394.808 419.157 395.906 407.34 389.296 399.375Z" fill="#FF7878"/>
<path d="M384.56 402.384C385.116 402.192 385.629 401.892 386.069 401.501C386.509 401.111 386.868 400.637 387.125 400.108C387.382 399.578 387.532 399.004 387.567 398.416C387.602 397.829 387.521 397.24 387.328 396.684L385.328 390.912C385.135 390.356 384.835 389.843 384.444 389.403C384.054 388.963 383.58 388.604 383.051 388.347C382.522 388.09 381.947 387.94 381.36 387.905C380.772 387.87 380.184 387.951 379.628 388.144V388.144C379.071 388.336 378.559 388.636 378.118 389.027C377.678 389.417 377.319 389.891 377.062 390.42C376.805 390.95 376.655 391.525 376.62 392.112C376.585 392.7 376.667 393.288 376.86 393.844L378.86 399.616C379.052 400.172 379.352 400.685 379.743 401.125C380.133 401.565 380.607 401.924 381.136 402.181C381.665 402.438 382.24 402.588 382.828 402.623C383.415 402.658 384.004 402.577 384.56 402.384Z" fill="#FF7878"/>
<path d="M348.694 404.834L365.318 406.381C365.93 406.439 366.548 406.375 367.136 406.193C367.724 406.012 368.27 405.716 368.744 405.324C369.217 404.931 369.609 404.449 369.896 403.905C370.183 403.361 370.361 402.766 370.418 402.153V402.153C370.475 401.54 370.411 400.923 370.229 400.335C370.048 399.747 369.752 399.2 369.359 398.727C368.967 398.253 368.484 397.862 367.94 397.574C367.396 397.287 366.8 397.11 366.188 397.053L349.562 395.514C348.949 395.457 348.331 395.52 347.743 395.702C347.155 395.883 346.609 396.178 346.135 396.571C345.662 396.964 345.27 397.446 344.983 397.99C344.696 398.534 344.519 399.129 344.462 399.742V399.742C344.348 400.979 344.729 402.21 345.523 403.164C346.317 404.119 347.457 404.72 348.694 404.834V404.834Z" fill="#FF7878"/>
<path d="M352.216 420.12L368.877 419.045C369.49 419.006 370.09 418.845 370.642 418.574C371.193 418.303 371.686 417.925 372.092 417.463C372.498 417.001 372.809 416.464 373.007 415.882C373.205 415.3 373.286 414.685 373.247 414.071C373.207 413.457 373.047 412.857 372.776 412.306C372.505 411.754 372.127 411.261 371.665 410.855C371.204 410.449 370.666 410.138 370.084 409.939C369.502 409.741 368.886 409.659 368.273 409.699L351.613 410.774C350.999 410.813 350.399 410.973 349.847 411.245C349.295 411.516 348.802 411.893 348.396 412.355C347.99 412.817 347.679 413.354 347.481 413.937C347.283 414.519 347.201 415.134 347.241 415.748C347.28 416.362 347.44 416.962 347.712 417.514C347.983 418.066 348.36 418.559 348.822 418.965C349.284 419.371 349.822 419.682 350.404 419.88C350.986 420.078 351.602 420.16 352.216 420.12V420.12Z" fill="#FF7878"/>
<path d="M182.798 363.322C183.184 363.321 183.562 363.207 183.883 362.992C184.203 362.777 184.454 362.472 184.601 362.116C184.749 361.759 184.788 361.367 184.713 360.988C184.638 360.609 184.452 360.261 184.179 359.988L165.528 341.333C165.162 340.967 164.665 340.761 164.147 340.761C163.629 340.761 163.133 340.967 162.766 341.333C162.4 341.699 162.194 342.196 162.194 342.714C162.194 343.232 162.4 343.729 162.766 344.095L181.417 362.749C181.598 362.931 181.813 363.076 182.05 363.174C182.287 363.272 182.542 363.323 182.798 363.322Z" fill="#1A0B21"/>
<path d="M196.08 351.875C196.337 351.875 196.591 351.825 196.828 351.727C197.065 351.628 197.28 351.485 197.462 351.303C197.643 351.122 197.787 350.907 197.885 350.669C197.983 350.432 198.034 350.178 198.033 349.922V323.544C198.033 323.026 197.828 322.529 197.461 322.163C197.095 321.796 196.598 321.59 196.08 321.59C195.562 321.59 195.065 321.796 194.699 322.163C194.332 322.529 194.126 323.026 194.126 323.544V349.922C194.126 350.179 194.177 350.433 194.275 350.67C194.373 350.907 194.517 351.122 194.699 351.303C194.88 351.485 195.096 351.629 195.333 351.727C195.57 351.825 195.824 351.875 196.08 351.875V351.875Z" fill="#1A0B21"/>
<path d="M144.974 376.601H171.355C171.874 376.601 172.37 376.395 172.737 376.029C173.103 375.662 173.309 375.166 173.309 374.647C173.309 374.129 173.103 373.632 172.737 373.266C172.37 372.9 171.874 372.694 171.355 372.694H144.974C144.456 372.694 143.959 372.9 143.593 373.266C143.227 373.632 143.021 374.129 143.021 374.647C143.021 375.166 143.227 375.662 143.593 376.029C143.959 376.395 144.456 376.601 144.974 376.601V376.601Z" fill="#1A0B21"/>
<path d="M379.272 458.654H217.872C213.372 458.654 211.983 455.007 211.983 450.503H387.425C387.425 451.574 387.214 452.634 386.805 453.623C386.395 454.612 385.794 455.51 385.037 456.267C384.28 457.024 383.381 457.625 382.392 458.034C381.403 458.444 380.343 458.654 379.272 458.654V458.654Z" fill="#1A0B21"/>
<path d="M388.632 450.503H331.421C331.421 455.003 335.566 458.654 340.679 458.654H378.172C378.223 458.654 388.823 458.654 388.872 458.654C394.151 458.578 393.907 450.503 388.632 450.503Z" fill="#1A0B21"/>
<path d="M327.851 452.87H211.982C210.314 452.869 208.699 452.287 207.415 451.223C206.13 450.159 205.257 448.68 204.946 447.042L189.328 380.028C189.132 378.992 189.166 377.926 189.429 376.905C189.692 375.885 190.177 374.934 190.849 374.123C191.521 373.311 192.364 372.657 193.318 372.209C194.272 371.76 195.313 371.528 196.367 371.528H312.232C313.901 371.528 315.518 372.11 316.803 373.174C318.088 374.238 318.962 375.717 319.273 377.357L334.889 444.37C335.086 445.405 335.051 446.471 334.788 447.492C334.525 448.512 334.04 449.462 333.368 450.274C332.696 451.086 331.853 451.739 330.9 452.188C329.946 452.637 328.905 452.87 327.851 452.87V452.87Z" fill="#1A0B21"/>
<path d="M319.274 377.36C318.932 375.556 317.909 373.952 316.417 372.882C315.307 373.676 314.447 374.771 313.941 376.039C313.434 377.306 313.301 378.692 313.558 380.033L329.172 447.047C329.515 448.849 330.537 450.45 332.026 451.52C333.136 450.726 333.996 449.631 334.503 448.364C335.01 447.097 335.144 445.712 334.889 444.371L319.274 377.36Z" fill="#1A0B21"/>
<path d="M246.4 420.752H265.4C267.272 420.752 269.068 420.008 270.392 418.684C271.716 417.361 272.459 415.565 272.459 413.693V413.693C272.459 412.766 272.277 411.848 271.922 410.992C271.567 410.135 271.047 409.357 270.392 408.702C269.736 408.046 268.958 407.527 268.102 407.172C267.245 406.817 266.327 406.635 265.4 406.635H246.4C244.528 406.635 242.733 407.379 241.409 408.702C240.085 410.026 239.342 411.821 239.341 413.693V413.693C239.341 415.565 240.085 417.361 241.409 418.684C242.733 420.008 244.528 420.752 246.4 420.752Z" fill="#3A2246"/>
<path d="M371.358 452.747H377.058C377.598 452.747 378.116 452.532 378.498 452.151C378.88 451.769 379.094 451.251 379.094 450.711C379.094 450.171 378.88 449.653 378.498 449.271C378.116 448.889 377.598 448.675 377.058 448.675H371.358C370.818 448.675 370.3 448.889 369.919 449.271C369.537 449.653 369.322 450.171 369.322 450.711C369.322 451.251 369.537 451.769 369.919 452.151C370.3 452.532 370.818 452.747 371.358 452.747Z" fill="#1A0B21"/>
<path d="M360.228 452.747H365.928C366.468 452.747 366.986 452.532 367.368 452.151C367.75 451.769 367.964 451.251 367.964 450.711C367.964 450.171 367.75 449.653 367.368 449.271C366.986 448.889 366.468 448.675 365.928 448.675H360.228C359.688 448.675 359.171 448.889 358.789 449.271C358.407 449.653 358.192 450.171 358.192 450.711V450.711C358.192 451.251 358.407 451.769 358.789 452.151C359.171 452.532 359.688 452.747 360.228 452.747V452.747Z" fill="#1A0B21"/>
<path d="M349.098 452.747H354.798C355.338 452.747 355.856 452.532 356.238 452.151C356.619 451.769 356.834 451.251 356.834 450.711C356.834 450.171 356.619 449.653 356.238 449.271C355.856 448.889 355.338 448.675 354.798 448.675H349.098C348.558 448.675 348.04 448.889 347.658 449.271C347.277 449.653 347.062 450.171 347.062 450.711C347.062 451.251 347.277 451.769 347.658 452.151C348.04 452.532 348.558 452.747 349.098 452.747Z" fill="#1A0B21"/>
<path d="M337.964 452.747H343.664C344.204 452.747 344.722 452.532 345.104 452.151C345.486 451.769 345.7 451.251 345.7 450.711C345.7 450.171 345.486 449.653 345.104 449.271C344.722 448.889 344.204 448.675 343.664 448.675H337.964C337.424 448.675 336.906 448.889 336.525 449.271C336.143 449.653 335.928 450.171 335.928 450.711C335.928 451.251 336.143 451.769 336.525 452.151C336.906 452.532 337.424 452.747 337.964 452.747Z" fill="#1A0B21"/>
<path d="M125.6 467.985H613.146C613.787 467.985 614.423 467.859 615.016 467.613C615.609 467.368 616.147 467.008 616.601 466.555C617.055 466.101 617.415 465.562 617.661 464.97C617.906 464.377 618.033 463.742 618.033 463.1V463.1C618.033 461.804 617.518 460.561 616.601 459.644C615.685 458.728 614.442 458.213 613.146 458.213H125.6C124.958 458.213 124.323 458.34 123.73 458.585C123.137 458.831 122.599 459.191 122.145 459.645C121.692 460.099 121.332 460.637 121.086 461.23C120.841 461.823 120.715 462.458 120.715 463.1V463.1C120.715 464.396 121.23 465.638 122.146 466.554C123.062 467.47 124.304 467.985 125.6 467.985V467.985Z" fill="#3A2246"/>
<path d="M540.166 428.17C540.166 428.17 543.755 401.21 550.251 394.583" stroke="#1A0B21" stroke-width="0.827" stroke-miterlimit="10" stroke-linecap="round"/>
<path d="M549.202 378.542C547.466 384.288 547.822 389.477 549.995 390.135C552.168 390.793 555.337 386.666 557.072 380.92C557.089 380.863 557.107 380.805 557.123 380.748C558.593 375.63 550.865 373.294 549.255 378.371C549.232 378.427 549.219 378.484 549.202 378.542Z" fill="#FFD2D4"/>
<path d="M538.892 391.382C544.638 393.118 549.827 392.762 550.485 390.589C551.143 388.416 547.016 385.247 541.27 383.512L541.098 383.461C535.98 381.99 533.644 389.719 538.72 391.329L538.892 391.382Z" fill="#FFD2D4"/>
<path d="M558.547 397.32C552.802 395.584 548.676 392.415 549.334 390.242C549.992 388.069 555.181 387.713 560.927 389.449L561.098 389.502C566.174 391.112 563.84 398.84 558.721 397.37L558.547 397.32Z" fill="#FFD2D4"/>
<path d="M548.875 403.851C547.26 398.07 547.723 392.889 549.91 392.278C552.097 391.667 555.178 395.857 556.794 401.637C556.809 401.696 556.825 401.753 556.84 401.81C558.204 406.959 550.427 409.132 548.925 404.022C548.907 403.967 548.891 403.909 548.875 403.851Z" fill="#FFD2D4"/>
<path d="M543.329 402.175C547.875 398.256 550.358 393.685 548.875 391.965C547.392 390.245 542.506 392.029 537.96 395.948L537.825 396.066C533.839 399.599 539.112 405.713 543.192 402.291C543.238 402.254 543.283 402.214 543.329 402.175Z" fill="#FFD2D4"/>
<path d="M547.286 390.888C547.125 391.42 547.126 391.988 547.288 392.52C547.45 393.051 547.766 393.523 548.196 393.875C548.626 394.227 549.151 394.444 549.704 394.498C550.258 394.551 550.814 394.44 551.304 394.177C551.794 393.914 552.195 393.512 552.456 393.021C552.717 392.53 552.827 391.973 552.771 391.42C552.716 390.867 552.498 390.343 552.144 389.914C551.791 389.485 551.318 389.17 550.786 389.01C550.072 388.795 549.303 388.872 548.647 389.224C547.99 389.576 547.501 390.175 547.286 390.888V390.888Z" fill="#D15E79"/>
<path d="M550.761 410.84C543.297 416.72 539.049 423.777 541.275 426.601C543.501 429.425 551.354 426.946 558.818 421.065C566.282 415.184 568.306 405.304 568.306 405.304C568.306 405.304 558.226 404.957 550.761 410.84Z" fill="#1A0B21"/>
<path d="M524.545 419.742C532.424 427.142 541.08 430.725 543.88 427.742C546.68 424.759 542.561 416.348 534.68 408.947C526.799 401.546 515.345 400.947 515.345 400.947C515.345 400.947 516.665 412.343 524.545 419.742Z" fill="#1A0B21"/>
<path d="M530.337 459.842H556.121L560.633 427.408H525.821L530.337 459.842Z" fill="#1A0B21"/>
<path d="M562.342 423.666H524.114C523.302 423.666 522.645 424.324 522.645 425.135V434.256C522.645 435.067 523.302 435.725 524.114 435.725H562.342C563.153 435.725 563.811 435.067 563.811 434.256V425.135C563.811 424.324 563.153 423.666 562.342 423.666Z" fill="#1A0B21"/>
<path d="M464.572 184.965L451.787 198.676L354.339 158.031L464.572 184.965Z" fill="#1A0B21"/>
<path d="M460.026 139.722L469.651 154.243L463.144 168.467L477.744 170.95L490.644 199.272L351.214 157.079L460.026 139.722Z" fill="#B283FF" fill-opacity="0.5"/>
<path d="M463.144 168.472L469.651 154.243L394.128 157.775L463.144 168.472Z" fill="#1A0B21"/>
<path d="M470.483 309.197C471.556 309.197 472.629 309.19 473.703 309.177C473.96 309.175 474.213 309.121 474.449 309.021C474.686 308.92 474.899 308.774 475.079 308.59C475.258 308.407 475.4 308.19 475.495 307.952C475.591 307.713 475.638 307.459 475.635 307.202C475.638 306.944 475.589 306.688 475.49 306.449C475.391 306.21 475.245 305.994 475.06 305.814C474.875 305.633 474.656 305.492 474.415 305.398C474.174 305.305 473.917 305.261 473.659 305.27C468.599 305.327 463.575 305.249 458.059 305.016H457.975C457.46 305.01 456.963 305.207 456.592 305.565C456.222 305.923 456.008 306.414 455.997 306.929C455.986 307.444 456.179 307.943 456.535 308.316C456.89 308.69 457.378 308.908 457.893 308.923C462.31 309.107 466.43 309.197 470.483 309.197ZM489.364 308.426C489.421 308.427 489.479 308.425 489.536 308.42C494.918 307.959 500.215 307.269 505.276 306.369C505.529 306.324 505.77 306.23 505.987 306.091C506.203 305.953 506.39 305.773 506.537 305.563C506.683 305.352 506.787 305.115 506.842 304.864C506.897 304.613 506.902 304.354 506.857 304.101C506.759 303.595 506.467 303.147 506.045 302.852C505.622 302.557 505.101 302.438 504.592 302.52C499.649 303.4 494.47 304.075 489.201 304.526C488.701 304.571 488.238 304.807 487.907 305.185C487.576 305.563 487.404 306.054 487.425 306.555C487.447 307.057 487.66 307.531 488.022 307.879C488.383 308.228 488.865 308.423 489.367 308.426H489.364ZM520.205 302.786C520.4 302.786 520.594 302.756 520.779 302.696C525.874 301.141 530.854 299.227 535.679 296.97C535.911 296.861 536.12 296.707 536.293 296.518C536.466 296.328 536.6 296.106 536.687 295.865C536.774 295.623 536.813 295.367 536.801 295.111C536.789 294.854 536.727 294.603 536.618 294.371C536.509 294.138 536.355 293.93 536.165 293.757C535.975 293.584 535.754 293.45 535.512 293.363C535.271 293.276 535.015 293.237 534.758 293.249C534.502 293.261 534.25 293.323 534.018 293.432C529.359 295.61 524.554 297.457 519.636 298.961C519.189 299.098 518.805 299.392 518.556 299.788C518.306 300.184 518.207 300.656 518.276 301.119C518.345 301.582 518.578 302.005 518.933 302.311C519.287 302.616 519.74 302.785 520.208 302.785L520.205 302.786ZM548.511 289.454C548.896 289.454 549.273 289.34 549.593 289.126C554.033 286.162 558.237 282.86 562.168 279.248C562.547 278.896 562.771 278.409 562.791 277.892C562.812 277.376 562.627 276.872 562.276 276.492C561.926 276.112 561.44 275.886 560.923 275.863C560.407 275.841 559.903 276.024 559.521 276.373C555.738 279.846 551.693 283.022 547.421 285.873C547.072 286.106 546.807 286.445 546.665 286.84C546.524 287.235 546.513 287.665 546.635 288.067C546.757 288.468 547.005 288.82 547.342 289.07C547.68 289.319 548.088 289.454 548.508 289.453L548.511 289.454ZM571.542 268.288C571.836 268.288 572.126 268.223 572.391 268.095C572.656 267.968 572.889 267.783 573.073 267.554C576.398 263.376 579.397 258.948 582.043 254.311C582.3 253.86 582.366 253.326 582.229 252.826C582.091 252.326 581.761 251.9 581.31 251.644C581.087 251.517 580.841 251.435 580.586 251.403C580.331 251.371 580.072 251.39 579.825 251.458C579.325 251.596 578.9 251.926 578.643 252.377C576.096 256.839 573.209 261.098 570.009 265.117C569.779 265.405 569.635 265.751 569.594 266.117C569.553 266.483 569.616 266.853 569.776 267.185C569.936 267.516 570.186 267.796 570.498 267.991C570.81 268.187 571.171 268.29 571.539 268.289L571.542 268.288ZM587.022 241.102C587.419 241.101 587.807 240.98 588.134 240.754C588.461 240.528 588.711 240.208 588.851 239.836C590.742 234.834 592.212 229.683 593.244 224.436C593.343 223.928 593.236 223.401 592.947 222.971C592.657 222.541 592.209 222.244 591.701 222.144C591.193 222.044 590.666 222.151 590.235 222.439C589.805 222.728 589.507 223.176 589.407 223.684C588.417 228.717 587.007 233.659 585.193 238.457C585.082 238.753 585.044 239.071 585.083 239.385C585.121 239.699 585.235 239.999 585.415 240.259C585.595 240.519 585.835 240.732 586.115 240.879C586.395 241.026 586.706 241.103 587.022 241.104V241.102ZM593.257 210.435C593.753 210.434 594.23 210.245 594.592 209.905C594.954 209.565 595.173 209.101 595.205 208.606C595.405 205.413 595.505 202.05 595.505 198.617V197.825C595.499 196.127 595.469 194.425 595.414 192.719C595.397 192.212 595.184 191.732 594.819 191.379C594.455 191.027 593.967 190.83 593.46 190.83H593.396C593.14 190.838 592.887 190.897 592.654 191.003C592.42 191.109 592.209 191.259 592.034 191.447C591.858 191.634 591.722 191.854 591.631 192.094C591.541 192.334 591.499 192.59 591.507 192.846C591.56 194.513 591.591 196.174 591.599 197.831V198.617C591.599 201.97 591.499 205.247 591.299 208.358C591.282 208.614 591.316 208.871 591.399 209.114C591.481 209.357 591.611 209.582 591.781 209.775C591.95 209.967 592.156 210.125 592.387 210.238C592.617 210.351 592.868 210.417 593.124 210.433C593.171 210.436 593.214 210.436 593.257 210.436V210.435Z" fill="#1A0B21"/>
<path d="M576.824 179.445C579.808 179.445 582.744 179.409 585.632 179.337C586.144 179.321 586.629 179.105 586.982 178.735C587.336 178.365 587.531 177.87 587.524 177.358C587.517 176.847 587.31 176.358 586.947 175.997C586.583 175.636 586.093 175.433 585.581 175.43H585.53C580.485 175.557 575.28 175.571 569.917 175.471C569.657 175.451 569.395 175.486 569.15 175.574C568.904 175.662 568.68 175.801 568.492 175.982C568.304 176.163 568.156 176.381 568.058 176.623C567.961 176.865 567.916 177.125 567.926 177.386C567.92 177.643 567.965 177.898 568.059 178.137C568.152 178.376 568.292 178.594 568.47 178.779C568.648 178.964 568.86 179.112 569.096 179.215C569.331 179.318 569.584 179.373 569.841 179.377C572.198 179.422 574.525 179.445 576.824 179.445ZM554.189 178.789C554.69 178.777 555.168 178.573 555.522 178.219C555.877 177.865 556.082 177.388 556.095 176.887C556.108 176.385 555.928 175.898 555.591 175.527C555.255 175.155 554.789 174.926 554.289 174.889C549.235 174.602 543.989 174.224 538.689 173.757C538.433 173.734 538.176 173.762 537.931 173.839C537.686 173.916 537.459 174.041 537.262 174.205C537.065 174.37 536.903 174.572 536.784 174.8C536.666 175.027 536.593 175.276 536.57 175.532C536.548 175.787 536.576 176.045 536.653 176.289C536.73 176.534 536.854 176.762 537.019 176.958C537.184 177.155 537.386 177.317 537.613 177.436C537.841 177.555 538.089 177.627 538.345 177.65C543.687 178.121 548.976 178.507 554.076 178.79C554.113 178.79 554.15 178.79 554.189 178.79V178.789ZM601.261 178.541C601.312 178.541 601.361 178.541 601.417 178.541C606.857 178.117 612.15 177.541 617.152 176.823C617.406 176.787 617.65 176.701 617.871 176.57C618.092 176.439 618.285 176.266 618.439 176.061C618.592 175.856 618.704 175.622 618.768 175.373C618.831 175.125 618.845 174.866 618.809 174.612C618.728 174.103 618.452 173.645 618.039 173.335C617.626 173.026 617.109 172.89 616.598 172.955C611.68 173.655 606.469 174.227 601.111 174.641C600.612 174.686 600.149 174.921 599.818 175.297C599.488 175.673 599.314 176.162 599.333 176.662C599.352 177.163 599.563 177.637 599.922 177.986C600.281 178.336 600.76 178.535 601.261 178.541V178.541ZM522.903 176.041C523.4 176.038 523.877 175.846 524.238 175.504C524.598 175.161 524.814 174.694 524.842 174.198C524.871 173.702 524.709 173.214 524.39 172.833C524.071 172.451 523.618 172.206 523.125 172.147C518.049 171.552 512.874 170.88 507.601 170.13C507.088 170.057 506.567 170.19 506.152 170.501C505.737 170.812 505.463 171.274 505.389 171.787C505.316 172.301 505.449 172.822 505.76 173.237C506.071 173.651 506.534 173.926 507.047 173.999C512.356 174.756 517.565 175.432 522.673 176.028C522.749 176.039 522.826 176.044 522.903 176.045V176.041ZM632.326 174.036C632.47 174.036 632.615 174.02 632.756 173.989C636.534 173.14 640.219 172.189 643.701 171.149C645.184 170.706 646.642 170.247 648.075 169.771C648.56 169.603 648.96 169.251 649.188 168.79C649.415 168.33 649.453 167.798 649.291 167.311C649.13 166.823 648.783 166.419 648.326 166.185C647.869 165.951 647.338 165.906 646.848 166.061C645.451 166.522 644.031 166.969 642.587 167.4C639.187 168.413 635.587 169.344 631.902 170.172C631.433 170.278 631.02 170.552 630.74 170.944C630.461 171.335 630.336 171.815 630.388 172.293C630.44 172.771 630.667 173.212 631.024 173.534C631.381 173.855 631.844 174.034 632.325 174.036H632.326ZM662.013 163.997C662.309 163.996 662.6 163.928 662.866 163.797C667.686 161.48 672.303 158.76 676.666 155.666C676.875 155.517 677.052 155.328 677.188 155.11C677.324 154.892 677.416 154.65 677.458 154.397C677.5 154.144 677.492 153.885 677.434 153.635C677.376 153.385 677.27 153.148 677.12 152.939C676.971 152.731 676.782 152.553 676.565 152.417C676.347 152.281 676.104 152.19 675.851 152.148C675.598 152.105 675.339 152.113 675.089 152.171C674.839 152.229 674.603 152.336 674.394 152.485C670.21 155.449 665.784 158.056 661.164 160.279C660.766 160.472 660.445 160.794 660.253 161.194C660.062 161.593 660.012 162.045 660.111 162.476C660.21 162.907 660.452 163.293 660.798 163.568C661.144 163.844 661.573 163.995 662.016 163.995L662.013 163.997ZM594.73 162.254C595.248 162.254 595.745 162.048 596.111 161.681C596.478 161.315 596.684 160.818 596.684 160.3V159.607C596.684 154.679 596.884 149.673 597.273 144.723C597.31 144.208 597.141 143.699 596.804 143.308C596.467 142.916 595.989 142.674 595.474 142.634C594.959 142.594 594.45 142.759 594.056 143.093C593.662 143.427 593.417 143.903 593.373 144.418C592.979 149.467 592.778 154.579 592.778 159.608V160.301C592.778 160.819 592.984 161.315 593.35 161.681C593.716 162.048 594.212 162.253 594.73 162.254V162.254ZM687.281 145.68C687.553 145.68 687.821 145.624 688.07 145.514C688.319 145.405 688.542 145.245 688.725 145.044C692.364 141.065 695.518 136.668 698.119 131.944C698.368 131.489 698.426 130.954 698.281 130.457C698.136 129.959 697.799 129.539 697.345 129.29C696.891 129.04 696.356 128.981 695.858 129.126C695.36 129.27 694.94 129.607 694.69 130.061C692.24 134.515 689.268 138.662 685.837 142.413C685.581 142.693 685.412 143.041 685.351 143.415C685.289 143.789 685.338 144.173 685.491 144.52C685.645 144.867 685.895 145.161 686.213 145.368C686.531 145.575 686.902 145.685 687.281 145.684V145.68ZM597.25 130.913C597.71 130.913 598.156 130.75 598.508 130.453C598.86 130.156 599.096 129.745 599.175 129.291C600.032 124.195 601.184 119.153 602.627 114.191C602.705 113.943 602.734 113.682 602.71 113.423C602.686 113.164 602.611 112.913 602.489 112.683C602.367 112.454 602.2 112.251 601.998 112.087C601.797 111.923 601.565 111.801 601.315 111.727C601.066 111.654 600.804 111.632 600.546 111.661C600.288 111.69 600.038 111.77 599.811 111.897C599.584 112.024 599.385 112.195 599.225 112.4C599.065 112.605 598.948 112.84 598.88 113.091C597.393 118.199 596.204 123.388 595.32 128.634C595.233 129.146 595.353 129.671 595.653 130.094C595.953 130.518 596.408 130.805 596.92 130.893C597.029 130.909 597.14 130.915 597.25 130.913V130.913ZM702.271 118.426C702.698 118.426 703.114 118.286 703.454 118.027C703.795 117.768 704.04 117.404 704.154 116.992C704.396 116.114 704.623 115.229 704.835 114.336C705.516 111.498 705.866 108.591 705.879 105.672C705.88 103.994 705.755 102.318 705.504 100.659C705.426 100.147 705.148 99.6865 704.731 99.3792C704.314 99.072 703.793 98.9429 703.28 99.0205C702.768 99.0981 702.308 99.3759 702.001 99.7929C701.693 100.21 701.564 100.732 701.642 101.244C701.862 102.71 701.973 104.19 701.972 105.672C701.958 108.287 701.643 110.892 701.031 113.435C700.831 114.28 700.617 115.121 700.388 115.947C700.319 116.194 700.299 116.453 700.33 116.707C700.36 116.962 700.441 117.208 700.567 117.432C700.693 117.655 700.862 117.852 701.064 118.01C701.266 118.168 701.498 118.285 701.745 118.354C701.915 118.401 702.09 118.426 702.267 118.427L702.271 118.426ZM606.31 100.898C606.678 100.898 607.039 100.793 607.351 100.597C607.663 100.401 607.913 100.12 608.073 99.788C610.24 95.1823 612.931 90.842 616.093 86.853C616.418 86.4487 616.568 85.9319 616.512 85.4164C616.456 84.9008 616.197 84.4288 615.793 84.104C615.389 83.7792 614.872 83.6284 614.356 83.6847C613.841 83.7409 613.369 83.9997 613.044 84.404C609.696 88.6275 606.844 93.2212 604.544 98.095C604.402 98.393 604.338 98.722 604.358 99.0515C604.377 99.3809 604.479 99.7001 604.655 99.9794C604.831 100.259 605.074 100.489 605.363 100.649C605.652 100.809 605.976 100.894 606.306 100.895L606.31 100.898ZM697.419 88.647C697.847 88.6481 698.263 88.5075 698.602 88.247C699.014 87.9332 699.285 87.4686 699.355 86.9552C699.425 86.4418 699.288 85.9216 698.975 85.509C695.601 81.1773 691.451 77.5107 686.737 74.696C686.295 74.4335 685.768 74.3556 685.269 74.479C684.77 74.6025 684.34 74.9174 684.071 75.3557C683.803 75.7939 683.718 76.3203 683.834 76.8208C683.951 77.3213 684.26 77.7557 684.695 78.03C688.996 80.5914 692.784 83.9301 695.865 87.876C696.046 88.1156 696.281 88.31 696.55 88.4439C696.819 88.5778 697.115 88.6477 697.416 88.648L697.419 88.647ZM626.078 77.026C626.458 77.0268 626.829 76.9162 627.147 76.708C631.344 73.9686 635.977 71.9636 640.847 70.779C641.096 70.7176 641.331 70.6077 641.538 70.4555C641.745 70.3033 641.92 70.1118 642.053 69.8919C642.186 69.6721 642.275 69.4282 642.314 69.1742C642.352 68.9202 642.341 68.661 642.279 68.4115C642.218 68.162 642.108 67.927 641.956 67.72C641.804 67.513 641.612 67.3379 641.392 67.2049C641.172 67.0719 640.929 66.9835 640.675 66.9447C640.421 66.906 640.161 66.9176 639.912 66.979C634.613 68.2715 629.572 70.4553 625.005 73.437C624.653 73.6676 624.384 74.0058 624.24 74.4013C624.096 74.7968 624.083 75.2284 624.204 75.6317C624.325 76.035 624.573 76.3884 624.911 76.6393C625.249 76.8902 625.659 77.0251 626.08 77.024L626.078 77.026ZM671.358 72.045C671.828 72.0443 672.281 71.8745 672.636 71.5668C672.991 71.259 673.223 70.8338 673.291 70.3689C673.358 69.904 673.256 69.4305 673.002 69.0348C672.749 68.6391 672.362 68.3478 671.912 68.214C666.903 66.7474 661.753 65.8165 656.548 65.437L655.959 65.418C655.45 65.4386 654.967 65.6449 654.6 65.9977C654.233 66.3506 654.008 66.8256 653.968 67.333C653.963 67.5895 654.008 67.8445 654.102 68.0835C654.195 68.3224 654.335 68.5406 654.513 68.7255C654.69 68.9104 654.903 69.0585 655.138 69.1612C655.373 69.2639 655.626 69.3192 655.883 69.324L656.308 69.34C661.22 69.6979 666.081 70.5765 670.808 71.961C670.985 72.0142 671.17 72.0425 671.355 72.045H671.358Z" fill="#1A0B21"/>
<path d="M201.081 85.352H96.6138C93.5084 85.3521 90.4334 85.9639 87.5644 87.1525C84.6955 88.3411 82.0888 90.0831 79.8931 92.2792C77.6974 94.4752 75.9558 97.0822 74.7677 99.9514C73.5796 102.821 72.9684 105.896 72.9688 109.001V162.885C72.9688 165.99 73.5803 169.065 74.7686 171.934C75.9569 174.802 77.6986 177.409 79.8942 179.605C82.0899 181.8 84.6965 183.542 87.5652 184.73C90.434 185.918 93.5087 186.53 96.6138 186.53H164.93L189.502 208.211V186.528H201.081C204.186 186.528 207.261 185.917 210.13 184.729C212.999 183.541 215.606 181.799 217.802 179.603C219.997 177.408 221.739 174.801 222.928 171.932C224.116 169.063 224.728 165.988 224.728 162.883V109.001C224.728 105.895 224.117 102.82 222.928 99.9511C221.74 97.0818 219.998 94.4748 217.802 92.2787C215.607 90.0827 213 88.3407 210.131 87.1522C207.261 85.9637 204.186 85.352 201.081 85.352V85.352Z" fill="#1A0B21"/>
<path d="M185.884 118.701H111.812C111.036 118.687 110.295 118.368 109.751 117.814C109.207 117.259 108.902 116.513 108.902 115.736C108.902 114.96 109.207 114.214 109.751 113.659C110.295 113.105 111.036 112.786 111.812 112.772H185.884C186.661 112.786 187.401 113.105 187.946 113.659C188.49 114.214 188.795 114.96 188.795 115.736C188.795 116.513 188.49 117.259 187.946 117.814C187.401 118.368 186.661 118.687 185.884 118.701V118.701Z" fill="#B283FF" fill-opacity="0.5"/>
<path d="M185.885 138.454H111.813C111.027 138.454 110.273 138.142 109.717 137.586C109.161 137.03 108.849 136.276 108.849 135.49C108.849 134.704 109.161 133.95 109.717 133.394C110.273 132.838 111.027 132.526 111.813 132.526H185.885C186.671 132.526 187.425 132.838 187.98 133.394C188.536 133.95 188.849 134.704 188.849 135.49C188.849 136.276 188.536 137.03 187.98 137.586C187.425 138.142 186.671 138.454 185.885 138.454Z" fill="#B283FF" fill-opacity="0.5"/>
<path d="M122.675 158.207H111.812C111.036 158.193 110.295 157.874 109.751 157.32C109.207 156.765 108.902 156.019 108.902 155.243C108.902 154.466 109.207 153.72 109.751 153.165C110.295 152.611 111.036 152.292 111.812 152.278H122.675C123.452 152.292 124.192 152.611 124.737 153.165C125.281 153.72 125.586 154.466 125.586 155.243C125.586 156.019 125.281 156.765 124.737 157.32C124.192 157.874 123.452 158.193 122.675 158.207Z" fill="#B283FF" fill-opacity="0.5"/>
<path d="M147.369 158.207H136.505C135.728 158.193 134.988 157.874 134.444 157.32C133.899 156.765 133.594 156.019 133.594 155.243C133.594 154.466 133.899 153.72 134.444 153.165C134.988 152.611 135.728 152.292 136.505 152.278H147.369C148.146 152.292 148.886 152.611 149.43 153.165C149.974 153.72 150.279 154.466 150.279 155.243C150.279 156.019 149.974 156.765 149.43 157.32C148.886 157.874 148.146 158.193 147.369 158.207Z" fill="#B283FF" fill-opacity="0.5"/>
<path d="M185.888 158.207H161.196C160.419 158.193 159.679 157.874 159.134 157.32C158.59 156.765 158.285 156.019 158.285 155.243C158.285 154.466 158.59 153.72 159.134 153.165C159.679 152.611 160.419 152.292 161.196 152.278H185.888C186.665 152.292 187.405 152.611 187.949 153.165C188.493 153.72 188.798 154.466 188.798 155.243C188.798 156.019 188.493 156.765 187.949 157.32C187.405 157.874 186.665 158.193 185.888 158.207V158.207Z" fill="#B283FF" fill-opacity="0.5"/>
<path d="M214.301 192.959H294.27C296.14 192.959 297.991 193.327 299.719 194.043C301.447 194.758 303.017 195.807 304.339 197.129C305.662 198.452 306.711 200.022 307.426 201.749C308.142 203.477 308.511 205.329 308.511 207.199V253.309C308.509 256.904 307.147 260.365 304.698 262.996C302.25 265.628 298.896 267.236 295.311 267.496L311.801 294.518L268.342 267.55H214.301C212.43 267.55 210.579 267.182 208.851 266.466C207.123 265.75 205.553 264.701 204.231 263.379C202.909 262.056 201.86 260.486 201.144 258.759C200.429 257.031 200.06 255.179 200.061 253.309V207.199C200.061 203.422 201.561 199.8 204.231 197.13C206.902 194.459 210.524 192.959 214.301 192.959V192.959Z" fill="#B283FF" fill-opacity="0.5"/>
<path d="M260.98 212.371C257.282 208.674 251.287 208.674 247.59 212.371C243.892 216.069 243.892 222.064 247.59 225.761C251.287 229.459 257.282 229.459 260.98 225.761C264.677 222.064 264.677 216.069 260.98 212.371Z" fill="#1A0B21" stroke="#1A0B21" stroke-width="2.761" stroke-linecap="round" stroke-linejoin="round"/>
<path d="M231.906 250.912H276.666C276.666 247.108 275.154 243.459 272.464 240.769C269.774 238.079 266.126 236.568 262.322 236.568H246.252C244.368 236.568 242.503 236.939 240.762 237.66C239.022 238.38 237.44 239.437 236.108 240.769C234.776 242.101 233.719 243.682 232.998 245.422C232.277 247.163 231.906 249.028 231.906 250.912V250.912Z" fill="#1A0B21" stroke="#1A0B21" stroke-width="2.761" stroke-linecap="round" stroke-linejoin="round"/>
<path d="M310.83 117.963C313.476 117.963 316.116 117.695 318.709 117.163C319.216 117.058 319.661 116.756 319.947 116.323C320.232 115.89 320.334 115.362 320.23 114.854C320.118 114.35 319.814 113.91 319.383 113.626C318.952 113.342 318.428 113.237 317.921 113.333C313.881 114.161 309.728 114.276 305.65 113.673C305.138 113.6 304.618 113.732 304.204 114.04C303.789 114.349 303.513 114.809 303.437 115.32C303.361 115.831 303.49 116.352 303.796 116.768C304.102 117.185 304.561 117.463 305.072 117.542C306.978 117.823 308.903 117.963 310.83 117.963V117.963ZM293.089 113.397C293.522 113.397 293.944 113.253 294.286 112.988C294.629 112.722 294.874 112.35 294.983 111.931C295.092 111.511 295.058 111.067 294.887 110.668C294.716 110.27 294.418 109.939 294.039 109.729C290.43 107.734 287.206 105.112 284.518 101.986C284.35 101.792 284.146 101.632 283.917 101.517C283.688 101.402 283.438 101.333 283.182 101.314C282.926 101.295 282.669 101.327 282.426 101.407C282.182 101.488 281.957 101.615 281.763 101.783C281.568 101.951 281.409 102.155 281.294 102.384C281.178 102.613 281.109 102.863 281.09 103.118C281.072 103.374 281.103 103.631 281.184 103.875C281.264 104.118 281.392 104.344 281.56 104.538C284.55 108.013 288.133 110.93 292.144 113.152C292.433 113.312 292.758 113.396 293.089 113.397V113.397ZM330.34 112.347C330.706 112.347 331.066 112.243 331.376 112.047C335.256 109.606 338.673 106.495 341.467 102.86C341.783 102.449 341.923 101.929 341.856 101.415C341.789 100.9 341.52 100.434 341.109 100.117C340.698 99.8012 340.178 99.6612 339.664 99.7283C339.149 99.7953 338.683 100.064 338.367 100.475C335.854 103.744 332.782 106.543 329.294 108.74C328.934 108.966 328.658 109.302 328.507 109.698C328.356 110.095 328.338 110.529 328.456 110.937C328.574 111.344 328.821 111.702 329.161 111.957C329.5 112.211 329.913 112.348 330.338 112.347H330.34ZM276.443 94.06C276.758 94.0588 277.068 93.9817 277.347 93.8352C277.626 93.6886 277.865 93.477 278.045 93.2183C278.225 92.9595 278.339 92.6613 278.379 92.3487C278.419 92.0362 278.383 91.7187 278.275 91.423C276.841 87.5586 276.109 83.4689 276.115 79.347C276.115 78.8289 275.909 78.332 275.542 77.9657C275.176 77.5993 274.679 77.3935 274.161 77.3935C273.643 77.3935 273.146 77.5993 272.78 77.9657C272.413 78.332 272.208 78.8289 272.208 79.347C272.2 83.9336 273.013 88.4846 274.608 92.785C274.747 93.1592 274.997 93.4819 275.325 93.7098C275.653 93.9377 276.043 94.0598 276.443 94.06V94.06ZM345.866 92.12C346.284 92.1197 346.691 91.9854 347.027 91.7366C347.363 91.4879 347.611 91.1379 347.734 90.738C348.868 87.0484 349.444 83.21 349.443 79.35C349.443 78.622 349.424 77.902 349.383 77.187C349.341 76.6742 349.104 76.197 348.721 75.8546C348.337 75.5121 347.836 75.3307 347.322 75.348C347.065 75.3624 346.814 75.4272 346.583 75.5387C346.352 75.6502 346.145 75.8061 345.974 75.9977C345.804 76.1892 345.672 76.4125 345.588 76.6548C345.503 76.8972 345.468 77.1538 345.483 77.41C345.518 78.048 345.537 78.698 345.537 79.346C345.537 82.8171 345.019 86.2688 344.001 89.587C343.848 90.0823 343.899 90.6178 344.141 91.0759C344.383 91.534 344.797 91.8772 345.293 92.03C345.479 92.0895 345.674 92.1195 345.871 92.119L345.866 92.12ZM275.243 72.459C275.68 72.4595 276.105 72.3133 276.449 72.0439C276.793 71.7746 277.038 71.3975 277.143 70.973C278.132 66.9722 279.832 63.1817 282.162 59.782C282.313 59.5706 282.421 59.3309 282.479 59.0772C282.537 58.8235 282.543 58.5608 282.498 58.3045C282.453 58.0482 282.358 57.8035 282.217 57.5847C282.076 57.3659 281.892 57.1775 281.678 57.0305C281.463 56.8835 281.221 56.7809 280.966 56.7287C280.711 56.6764 280.448 56.6757 280.193 56.7264C279.938 56.7771 279.695 56.8783 279.48 57.024C279.264 57.1697 279.08 57.3571 278.938 57.575C276.344 61.3588 274.452 65.5783 273.352 70.032C273.289 70.281 273.276 70.5399 273.314 70.7938C273.352 71.0477 273.44 71.2917 273.572 71.5116C273.705 71.7316 273.879 71.9232 274.086 72.0755C274.293 72.2277 274.527 72.3377 274.777 72.399C274.929 72.4384 275.085 72.4586 275.243 72.459V72.459ZM344.443 66.643C344.767 66.6419 345.086 66.5604 345.371 66.4056C345.656 66.2509 345.898 66.0278 346.076 65.7564C346.253 65.485 346.36 65.1738 346.388 64.8506C346.416 64.5275 346.363 64.2026 346.234 63.905C344.402 59.7002 341.832 55.858 338.644 52.561C338.466 52.3764 338.253 52.2286 338.018 52.1261C337.783 52.0236 337.53 51.9684 337.274 51.9637C337.017 51.9589 336.762 52.0047 336.524 52.0985C336.285 52.1922 336.067 52.332 335.883 52.51C335.698 52.6879 335.55 52.9005 335.448 53.1356C335.345 53.3706 335.29 53.6235 335.285 53.8799C335.281 54.1363 335.326 54.3911 335.42 54.6298C335.514 54.8685 335.654 55.0864 335.832 55.271C338.695 58.237 341.005 61.6914 342.653 65.471C342.804 65.8196 343.055 66.1163 343.372 66.3247C343.69 66.533 344.062 66.644 344.443 66.644V66.643ZM289.631 51.383C290.036 51.3844 290.431 51.2585 290.761 51.023C294.118 48.6333 297.878 46.8665 301.861 45.807C302.362 45.6737 302.789 45.3468 303.049 44.8983C303.31 44.4497 303.381 43.9161 303.248 43.415C303.114 42.9139 302.787 42.4862 302.339 42.2261C301.89 41.966 301.357 41.8947 300.856 42.028C296.422 43.208 292.237 45.1753 288.5 47.836C288.161 48.0762 287.908 48.4178 287.777 48.8114C287.646 49.2049 287.644 49.6299 287.77 50.025C287.897 50.42 288.146 50.7645 288.481 51.0087C288.816 51.2528 289.221 51.3839 289.636 51.383H289.631ZM326.749 48.268C327.191 48.268 327.621 48.1176 327.967 47.8416C328.314 47.5655 328.556 47.1801 328.654 46.7484C328.753 46.3167 328.702 45.8644 328.51 45.4654C328.318 45.0663 327.996 44.7443 327.598 44.552C323.469 42.557 319.016 41.3191 314.45 40.897C314.194 40.8732 313.936 40.8999 313.691 40.9757C313.445 41.0516 313.217 41.175 313.02 41.3389C312.822 41.5029 312.659 41.7041 312.539 41.9312C312.419 42.1583 312.345 42.4068 312.321 42.6625C312.297 42.9182 312.324 43.176 312.4 43.4214C312.476 43.6667 312.599 43.8947 312.763 44.0924C312.927 44.29 313.128 44.4535 313.355 44.5733C313.582 44.6932 313.831 44.7672 314.087 44.791C318.189 45.1696 322.191 46.2802 325.903 48.07C326.167 48.2003 326.457 48.2684 326.752 48.269L326.749 48.268Z" fill="#1A0B21"/>
<path d="M310.829 60.783C324.979 60.783 336.448 68.364 336.448 77.72V77.769C336.438 80.21 334.512 81.885 332.71 81.116L325.985 78.246C324.367 77.555 323.585 75.2 324.309 73.215L325.136 70.959C315.678 72.3015 306.076 72.3015 296.617 70.959L297.451 73.853C297.729 74.6907 297.727 75.5956 297.446 76.4322C297.166 77.2688 296.622 77.9918 295.895 78.493L289.244 82.124C287.627 83.007 285.744 81.824 285.367 79.613C285.262 78.9878 285.209 78.355 285.209 77.721C285.209 68.364 296.679 60.783 310.829 60.783Z" fill="#1A0B21"/>
<path d="M293.083 97.911H328.59L323.328 81.424C322.848 79.9183 321.901 78.6044 320.625 77.6719C319.349 76.7394 317.809 76.2366 316.228 76.236H305.447C303.867 76.237 302.328 76.74 301.052 77.6725C299.776 78.6049 298.829 79.9186 298.347 81.424L293.083 97.911Z" fill="#B283FF" fill-opacity="0.5"/>
<path d="M81.9647 318.772C84.6149 318.773 87.2583 318.503 89.8536 317.966C90.3613 317.86 90.8063 317.557 91.091 317.124C91.3757 316.691 91.477 316.162 91.3726 315.654C91.2613 315.149 90.9571 314.708 90.525 314.425C90.0928 314.141 89.5669 314.038 89.0596 314.137C85.0222 314.969 80.8699 315.084 76.7927 314.477C76.2857 314.413 75.774 314.55 75.3669 314.859C74.9597 315.168 74.6895 315.623 74.614 316.129C74.5385 316.634 74.6637 317.149 74.9628 317.563C75.2619 317.977 75.7112 318.258 76.2147 318.345C78.1185 318.626 80.0402 318.769 81.9647 318.772V318.772ZM64.2277 314.21C64.6608 314.21 65.0817 314.066 65.4243 313.801C65.7668 313.536 66.0117 313.165 66.1205 312.745C66.2293 312.326 66.1958 311.882 66.0254 311.484C65.8549 311.086 65.5571 310.756 65.1786 310.545C61.5711 308.547 58.3473 305.925 55.6576 302.799C55.3153 302.421 54.8388 302.192 54.3298 302.16C53.8209 302.129 53.3197 302.298 52.9335 302.631C52.5473 302.964 52.3066 303.435 52.2627 303.943C52.2188 304.451 52.3753 304.956 52.6987 305.35C55.6884 308.825 59.2722 311.741 63.2826 313.961C63.571 314.124 63.8966 314.209 64.2277 314.209V314.21ZM101.476 313.158C101.843 313.158 102.202 313.054 102.513 312.858C106.392 310.416 109.807 307.306 112.6 303.671C112.756 303.467 112.871 303.235 112.938 302.987C113.005 302.739 113.022 302.48 112.989 302.226C112.956 301.971 112.873 301.725 112.744 301.503C112.616 301.28 112.446 301.085 112.242 300.929C112.039 300.772 111.806 300.657 111.558 300.59C111.31 300.523 111.052 300.506 110.797 300.539C110.542 300.572 110.297 300.655 110.074 300.784C109.851 300.912 109.656 301.082 109.5 301.286C106.99 304.556 103.919 307.355 100.43 309.551C100.07 309.777 99.7943 310.113 99.6432 310.509C99.4921 310.906 99.4742 311.341 99.5922 311.748C99.7101 312.155 99.9575 312.513 100.297 312.768C100.636 313.022 101.049 313.159 101.474 313.158H101.476ZM47.5856 294.871C47.8181 294.87 48.0486 294.829 48.2667 294.748C48.7525 294.567 49.1467 294.201 49.3627 293.729C49.5787 293.258 49.5988 292.72 49.4186 292.234C47.9843 288.37 47.2525 284.281 47.2576 280.159C47.2576 279.641 47.0518 279.144 46.6855 278.778C46.3191 278.411 45.8222 278.205 45.3041 278.205C44.786 278.205 44.2891 278.411 43.9228 278.778C43.5564 279.144 43.3506 279.641 43.3506 280.159C43.3428 284.745 44.1556 289.296 45.7507 293.596C45.8895 293.971 46.1398 294.294 46.4679 294.522C46.796 294.75 47.1861 294.872 47.5856 294.871ZM117.013 292.925C117.43 292.925 117.837 292.791 118.173 292.542C118.509 292.294 118.757 291.944 118.88 291.545C120.014 287.856 120.589 284.018 120.586 280.159C120.586 279.433 120.566 278.715 120.525 277.998C120.473 277.489 120.234 277.018 119.853 276.678C119.472 276.337 118.977 276.151 118.466 276.156C117.948 276.185 117.464 276.418 117.119 276.804C116.773 277.19 116.595 277.698 116.624 278.215C116.659 278.861 116.679 279.509 116.679 280.159C116.682 283.628 116.165 287.077 115.145 290.392C114.992 290.887 115.043 291.423 115.285 291.881C115.527 292.34 115.941 292.683 116.437 292.836C116.623 292.895 116.817 292.925 117.013 292.925V292.925ZM46.3737 273.271C46.8108 273.272 47.2356 273.126 47.5801 272.857C47.9245 272.587 48.1687 272.21 48.2736 271.786C49.2654 267.787 50.9652 263.998 53.2927 260.598C53.4376 260.386 53.5393 260.148 53.5922 259.897C53.645 259.646 53.6478 259.386 53.6005 259.134C53.5532 258.882 53.4566 258.642 53.3164 258.427C53.1762 258.212 52.995 258.026 52.7831 257.882C52.5713 257.737 52.3331 257.635 52.0819 257.582C51.8308 257.529 51.5716 257.526 51.3194 257.574C51.0671 257.621 50.8266 257.717 50.6117 257.858C50.3967 257.998 50.2116 258.179 50.0666 258.391C47.4735 262.174 45.5817 266.392 44.4816 270.845C44.4194 271.094 44.407 271.353 44.4449 271.607C44.4829 271.86 44.5706 272.104 44.703 272.324C44.8354 272.544 45.0098 272.736 45.2164 272.888C45.4229 273.04 45.6575 273.15 45.9067 273.212C46.0592 273.251 46.2161 273.271 46.3737 273.271ZM115.58 267.453C115.904 267.453 116.224 267.371 116.509 267.217C116.794 267.062 117.037 266.839 117.215 266.568C117.392 266.296 117.5 265.985 117.527 265.661C117.555 265.338 117.501 265.013 117.372 264.715C115.536 260.512 112.964 256.67 109.778 253.371C109.6 253.186 109.387 253.039 109.152 252.936C108.917 252.834 108.664 252.778 108.408 252.774C108.151 252.769 107.897 252.815 107.658 252.908C107.419 253.002 107.201 253.142 107.017 253.32C106.832 253.498 106.684 253.711 106.582 253.946C106.479 254.181 106.424 254.434 106.419 254.69C106.415 254.946 106.46 255.201 106.554 255.44C106.648 255.678 106.788 255.896 106.966 256.081C109.829 259.048 112.139 262.502 113.789 266.281C113.941 266.629 114.192 266.926 114.51 267.134C114.828 267.342 115.2 267.453 115.581 267.453H115.58ZM60.7646 252.203C61.1697 252.204 61.565 252.078 61.8946 251.843C65.2512 249.451 69.0112 247.682 72.9946 246.623C73.2477 246.562 73.486 246.451 73.6956 246.296C73.9051 246.142 74.0817 245.947 74.215 245.724C74.3483 245.5 74.4357 245.252 74.4719 244.994C74.508 244.737 74.4924 244.474 74.4258 244.222C74.3592 243.971 74.243 243.735 74.084 243.529C73.9251 243.323 73.7266 243.15 73.5001 243.022C73.2737 242.894 73.0238 242.812 72.7653 242.781C72.5068 242.751 72.2448 242.772 71.9946 242.844C67.5614 244.026 63.3765 245.995 59.6387 248.656C59.3005 248.896 59.0475 249.238 58.9164 249.631C58.7853 250.025 58.7828 250.45 58.9093 250.845C59.0358 251.24 59.2848 251.585 59.6202 251.829C59.9555 252.073 60.3598 252.204 60.7747 252.203H60.7646ZM97.8826 249.076C98.3249 249.075 98.7538 248.924 99.0994 248.648C99.4449 248.372 99.6866 247.987 99.7851 247.556C99.8836 247.124 99.8331 246.673 99.6418 246.274C99.4505 245.875 99.1296 245.553 98.7316 245.36C94.6009 243.365 90.1455 242.128 85.5776 241.708C85.3219 241.684 85.0641 241.711 84.8187 241.787C84.5734 241.863 84.3454 241.986 84.1478 242.15C83.7486 242.481 83.4973 242.957 83.4492 243.473C83.401 243.99 83.56 244.504 83.891 244.903C84.2221 245.303 84.6983 245.554 85.2147 245.602C89.3184 245.977 93.3213 247.087 97.0326 248.878C97.2975 249.009 97.5892 249.077 97.8846 249.076H97.8826Z" fill="#1A0B21"/>
<path d="M104.998 273.203H59.5474V298.976H104.998V273.203Z" fill="#B283FF" fill-opacity="0.5"/>
<path d="M65.7794 271.159V268.006C65.7794 266.892 65.3369 265.824 64.5493 265.036C63.7616 264.248 62.6933 263.806 61.5794 263.806V263.806C60.4655 263.806 59.3972 264.248 58.6096 265.036C57.8219 265.824 57.3794 266.892 57.3794 268.006V273.236H65.7874" fill="#1A0B21"/>
<path d="M65.6973 267.946V294.733H96.6843V267.946C96.6843 266.832 96.2418 265.764 95.4541 264.976C94.6664 264.188 93.5982 263.746 92.4843 263.746H61.8433L62.6953 263.923C63.5621 264.181 64.3225 264.712 64.8634 265.437C65.4043 266.162 65.6967 267.042 65.6973 267.946V267.946Z" fill="#1A0B21"/>
<path d="M94.7572 268.103H87.8862V275.156H94.7572V268.103Z" fill="#1A0B21"/>
<path d="M85.7805 268.063H68.3135" stroke="#1A0B21" stroke-width="0.658" stroke-linecap="round" stroke-linejoin="round"/>
<path d="M85.7805 270.438H68.3135" stroke="#1A0B21" stroke-width="0.658" stroke-linecap="round" stroke-linejoin="round"/>
<path d="M85.7805 272.814H68.3135" stroke="#1A0B21" stroke-width="0.658" stroke-linecap="round" stroke-linejoin="round"/>
<path d="M85.6164 275.189H68.1494" stroke="#1A0B21" stroke-width="0.658" stroke-linecap="round" stroke-linejoin="round"/>
<path d="M94.7575 277.532H68.3135" stroke="#1A0B21" stroke-width="0.658" stroke-linecap="round" stroke-linejoin="round"/>
<path d="M94.7575 279.907H68.3135" stroke="#1A0B21" stroke-width="0.658" stroke-linecap="round" stroke-linejoin="round"/>
<path d="M94.7575 282.231H68.3135" stroke="#1A0B21" stroke-width="0.658" stroke-linecap="round" stroke-linejoin="round"/>
<path d="M94.7563 284.606H81.9043" stroke="#1A0B21" stroke-width="0.658" stroke-linecap="round" stroke-linejoin="round"/>
<path d="M70.7144 298.977H105.003V273.199L70.7144 298.977Z" fill="#1A0B21"/>
<path d="M93.8334 298.977H59.5474V273.199L93.8334 298.977Z" fill="#1A0B21"/>
<path d="M59.5474 298.976H104.998L84.5864 288.076C83.9069 287.605 83.1 287.353 82.2734 287.353C81.4468 287.353 80.6398 287.605 79.9604 288.076L59.5474 298.976Z" fill="#1A0B21"/>
</svg>
