<svg width="20" height="20" viewBox="0 0 20 20" fill="none" xmlns="http://www.w3.org/2000/svg">
<path fill-rule="evenodd" clip-rule="evenodd" d="M13.2976 4.41095C13.8628 4.71977 14.3723 5.1092 14.8072 5.56495C15.233 6.01086 15.5744 6.52045 15.8171 7.07214C15.9549 7.3885 16.0634 7.71522 16.1414 8.04872C16.3224 8.79771 16.3367 9.57311 16.1835 10.3274C16.1004 10.7351 15.9742 11.1342 15.8066 11.5188L15.7855 11.5595C15.4243 12.3734 14.8054 13.1644 14.2075 13.9456C13.9007 14.3395 13.5974 14.7302 13.3414 15.1094C13.261 15.2276 13.1473 15.3231 13.0125 15.3853C12.8777 15.4476 12.727 15.4743 12.577 15.4626L7.7449 16.1299C7.54701 16.1551 7.34601 16.1127 7.17927 16.0106C7.01254 15.9085 6.89142 15.7537 6.83845 15.5749C6.71715 15.2487 6.56824 14.932 6.39311 14.6276C6.2469 14.367 6.07053 14.122 5.86712 13.8968C5.6164 13.6315 5.36217 13.3613 5.11496 13.0504C4.83114 12.6976 4.5862 12.3192 4.38383 11.9209C4.17167 11.5038 4.00656 11.0674 3.89116 10.6188C3.77704 10.1681 3.72113 9.70637 3.72459 9.24341C3.72465 8.76082 3.79004 8.28016 3.91921 7.81271C4.05939 7.31294 4.26057 6.82966 4.51884 6.37225L4.5539 6.31529C4.88808 5.78872 5.31001 5.31463 5.804 4.91064C6.29654 4.51136 6.85702 4.1907 7.46262 3.96172L7.51171 3.94545C7.96297 3.77881 8.43374 3.66191 8.91435 3.59713C9.4238 3.53089 9.93982 3.51997 10.452 3.56458C10.9524 3.60702 11.4463 3.70035 11.9248 3.84291C12.4013 3.98459 12.8594 4.17512 13.2906 4.41095H13.2976ZM12.5963 18.6137C12.3311 19.0378 11.9517 19.3907 11.4952 19.6375C11.1099 19.8458 10.6778 19.9684 10.2328 19.9956C9.78803 20.0206 9.34375 19.9393 8.9424 19.7596C8.65305 19.6272 8.3922 19.4468 8.17271 19.2273L10.3591 18.3338L12.6068 18.6137H12.5963ZM13.0188 16.3106V16.5792V16.6736C13.0329 16.8497 12.9568 17.336 13.0188 17.2026L12.6927 17.9041L10.3591 17.5916L7.7449 18.4737L7.46613 18.1336L7.25748 17.336V17.1049L10.1697 16.195L13.0065 16.3106H13.0188ZM9.87866 0.613674C9.88189 0.448474 9.95545 0.291182 10.0833 0.176194C10.2111 0.0612049 10.3827 -0.00212418 10.5607 5.44036e-05H10.608C10.7776 0.0140236 10.9352 0.0870999 11.049 0.204575C11.1629 0.32205 11.2246 0.475202 11.2217 0.633205C11.2226 0.644039 11.2226 0.654924 11.2217 0.665758L11.1849 2.00205C11.1858 2.01614 11.1858 2.03027 11.1849 2.04437C11.1715 2.20237 11.094 2.34978 10.9681 2.45675C10.8421 2.56372 10.6771 2.62227 10.5063 2.62055H10.459C10.2888 2.60777 10.1302 2.53543 10.0153 2.41818C9.90038 2.30093 9.83775 2.14753 9.84009 1.98903C9.83912 1.97874 9.83912 1.96839 9.84009 1.9581L9.87515 0.615301L9.87866 0.613674ZM2.45521 2.95422C2.35711 2.8702 2.28813 2.76101 2.25702 2.64052C2.22591 2.52003 2.23408 2.39368 2.28049 2.27751C2.3269 2.16134 2.40946 2.06059 2.51767 1.98807C2.62589 1.91555 2.75489 1.87453 2.88827 1.87021C2.9765 1.86646 3.06466 1.87891 3.14769 1.90684C3.23073 1.93477 3.30702 1.97763 3.37218 2.03297L4.45221 2.96561C4.58202 3.07958 4.65877 3.23609 4.66611 3.40182C4.67024 3.48373 4.65688 3.56559 4.62679 3.64269C4.5967 3.71979 4.55048 3.7906 4.49079 3.85104C4.369 3.97188 4.20078 4.04324 4.02266 4.04962C3.9344 4.05363 3.84616 4.04131 3.76309 4.01336C3.68001 3.98542 3.60375 3.94242 3.53875 3.88685L2.45521 2.95422ZM0.687887 9.844C0.510464 9.84666 0.339016 9.78452 0.210466 9.67096C0.0819159 9.55741 0.00654873 9.40153 0.000595586 9.23689C-0.0031565 9.15414 0.0108482 9.07151 0.0417957 8.99383C0.0727432 8.91614 0.120016 8.84494 0.180867 8.78436C0.241717 8.72378 0.314931 8.67503 0.396254 8.64095C0.477576 8.60687 0.565385 8.58814 0.654575 8.58584L2.1291 8.54027C2.2181 8.53678 2.30696 8.54973 2.39053 8.57836C2.47411 8.60699 2.55073 8.65073 2.61596 8.70704C2.68119 8.76336 2.73374 8.83114 2.77055 8.90644C2.80736 8.98175 2.82771 9.06309 2.83041 9.14575V9.15551V9.1783C2.82733 9.33903 2.75765 9.49247 2.63586 9.60675C2.51407 9.72102 2.34953 9.78734 2.17644 9.79192H2.15014L0.694901 9.83587L0.687887 9.844ZM19.2728 7.90386H19.2868C19.4557 7.89446 19.6222 7.94444 19.7532 8.04384C19.8222 8.09547 19.8794 8.15934 19.9216 8.23172C19.9637 8.30409 19.9899 8.38353 19.9987 8.46539C19.9997 8.47242 19.9997 8.47953 19.9987 8.48655C20.0096 8.64769 19.9528 8.80649 19.8404 8.92967C19.728 9.05286 19.5686 9.13087 19.3955 9.14737L17.928 9.29223C17.8402 9.30039 17.7514 9.29236 17.6669 9.26862C17.5823 9.24488 17.5036 9.20589 17.4354 9.15389C17.3322 9.0762 17.256 8.97191 17.2165 8.85413C17.177 8.73635 17.176 8.61036 17.2135 8.49203C17.2509 8.37369 17.3253 8.2683 17.4272 8.18912C17.5291 8.10995 17.6539 8.06053 17.786 8.04709C18.2752 7.99663 18.7679 7.94455 19.2588 7.9006L19.2728 7.90386ZM16.3641 2.45616C16.4126 2.38749 16.4753 2.32839 16.5485 2.28228C16.6218 2.23617 16.7041 2.20394 16.7908 2.18746C16.8774 2.17097 16.9668 2.17055 17.0536 2.18622C17.1405 2.20188 17.2231 2.23333 17.2969 2.27875C17.3709 2.32357 17.4345 2.38187 17.4836 2.45013C17.5327 2.51839 17.5664 2.59519 17.5826 2.67589C17.617 2.83848 17.5804 3.00709 17.4809 3.14465L16.6604 4.28399C16.6125 4.35384 16.5499 4.41404 16.4764 4.46101C16.4029 4.50798 16.32 4.54077 16.2326 4.55744C16.0577 4.5891 15.8764 4.55579 15.7277 4.46466C15.5803 4.37231 15.4772 4.23055 15.4401 4.06915C15.4057 3.90656 15.4423 3.73795 15.5418 3.60039L16.3641 2.46104V2.45616ZM6.70344 13.1628C6.19285 12.6654 5.76555 12.0997 5.43581 11.4847C5.07743 10.7964 4.89104 10.042 4.89054 9.27759C4.9084 8.45594 5.13742 7.65015 5.55854 6.92728C5.56215 6.9222 5.56509 6.91673 5.56731 6.911C6.10125 6.05151 6.92768 5.38107 7.91672 5.00504C8.6909 4.71615 9.52861 4.60449 10.3591 4.67951C11.1822 4.74818 11.979 4.98436 12.6927 5.37126C13.6067 5.86071 14.322 6.61566 14.7283 7.51974C14.9865 8.09333 15.1195 8.70881 15.1195 9.33048C15.1195 9.95216 14.9865 10.5676 14.7283 11.1412C14.2566 12.2073 13.1766 13.3467 12.4683 14.3884C12.4295 14.381 12.3896 14.381 12.3508 14.3884L7.77821 15.015C7.54694 14.341 7.18247 13.7129 6.70344 13.1628Z" fill="#FFD700"/>
</svg>
