<svg width="50" height="50" viewBox="0 0 50 50" fill="none" xmlns="http://www.w3.org/2000/svg">
<path d="M25 50C38.8071 50 50 38.8071 50 25C50 11.1929 38.8071 0 25 0C11.1929 0 0 11.1929 0 25C0 38.8071 11.1929 50 25 50Z" fill="#3C5A9A"/>
<path d="M33.1289 7.67383H27.5907C24.3042 7.67383 20.6487 9.05609 20.6487 13.82C20.6648 15.4799 20.6487 17.0697 20.6487 18.8588H16.8467V24.909H20.7664V42.3264H27.969V24.794H32.723L33.1531 18.8418H27.8449C27.8449 18.8418 27.8568 16.194 27.8449 15.4251C27.8449 13.5425 29.8038 13.6503 29.9216 13.6503C30.8538 13.6503 32.6663 13.653 33.1316 13.6503V7.67383H33.1289V7.67383Z" fill="white"/>
</svg>
