<svg width="50" height="50" viewBox="0 0 50 50" fill="none" xmlns="http://www.w3.org/2000/svg">
<path d="M50 21.875H43.75V15.625H40.625V21.875H34.375V25H40.625V31.25H43.75V25H50V21.875ZM15.625 28.125H24.4656C23.8169 29.9516 22.6191 31.5328 21.0363 32.6518C19.4535 33.7707 17.5634 34.3726 15.625 34.375C10.4562 34.375 6.25 30.1688 6.25 25C6.25 19.8313 10.4562 15.625 15.625 15.625C17.8656 15.625 20.0219 16.4281 21.6969 17.8875L25.8031 13.175C22.9807 10.7206 19.3653 9.37082 15.625 9.37501C7.00938 9.37501 0 16.3844 0 25C0 33.6156 7.00938 40.625 15.625 40.625C24.2406 40.625 31.25 33.6156 31.25 25V21.875H15.625V28.125Z" fill="#F44336"/>
</svg>
