<svg width="50" height="50" viewBox="0 0 50 50" fill="none" xmlns="http://www.w3.org/2000/svg">
<g clip-path="url(#clip0_63_39)">
<path d="M25 50C38.8071 50 50 38.8071 50 25C50 11.1929 38.8071 0 25 0C11.1929 0 0 11.1929 0 25C0 38.8071 11.1929 50 25 50Z" fill="#2DAAE1"/>
<path d="M41.0295 15.0553C39.8503 15.5786 38.5837 15.9323 37.2521 16.0913C38.6111 15.2775 39.6523 13.9878 40.1439 12.453C38.8529 13.2197 37.44 13.7596 35.9666 14.049C34.7675 12.7709 33.0577 11.9729 31.166 11.9729C27.535 11.9729 24.5902 14.9164 24.5902 18.5496C24.5902 19.0643 24.6482 19.5665 24.7597 20.0487C19.2937 19.774 14.4478 17.1558 11.2042 13.1773C10.6378 14.149 10.3136 15.2787 10.3136 16.484C10.3136 18.7654 11.4748 20.7783 13.2392 21.9575C12.1947 21.9251 11.1731 21.6431 10.2599 21.1352V21.2183C10.2599 24.4051 12.5265 27.0623 15.5353 27.6666C14.9826 27.8181 14.4026 27.8972 13.8025 27.8972C13.3782 27.8972 12.9666 27.857 12.5644 27.7814C13.4014 30.3934 15.8302 32.2946 18.7073 32.3484C16.4565 34.1128 13.6203 35.1646 10.5399 35.1646C10.0093 35.1646 9.48499 35.1329 8.97021 35.0709C11.8812 36.9374 15.3374 38.0271 19.0516 38.0271C31.1481 38.0271 37.7637 28.0057 37.7637 19.315C37.7637 19.0297 37.7574 18.7465 37.7436 18.4643C39.0326 17.532 40.1452 16.3777 41.0295 15.0553V15.0553Z" fill="white"/>
</g>
<defs>
<clipPath id="clip0_63_39">
<rect width="50" height="50" fill="white"/>
</clipPath>
</defs>
</svg>
